<svg xmlns="http://www.w3.org/2000/svg" viewBox="0 0 920 1588" width="100%">
<style>
  .header-text { font: bold 13px "Segoe UI", system-ui, -apple-system, sans-serif; fill: #ffffff; }
  .topic-text { font: bold 11px "Segoe UI", system-ui, -apple-system, sans-serif; fill: #0550ae; }
  .event-text { font: 11px "Segoe UI", system-ui, -apple-system, sans-serif; fill: #1f2328; }
  .handler-text { font: 11px "Segoe UI", system-ui, -apple-system, sans-serif; fill: #116329; }
  .incoming-text { font: 11px "Segoe UI", system-ui, -apple-system, sans-serif; fill: #7d4e00; }
  .section-label { font: bold 10px "Segoe UI", system-ui, -apple-system, sans-serif; fill: #656d76; text-transform: uppercase; letter-spacing: 0.5px; }
  .cross-label { font: italic 10px "Segoe UI", system-ui, -apple-system, sans-serif; fill: #a40e26; }
  .arrow-self { stroke: #656d76; fill: none; stroke-width: 1.5; marker-end: url(#arrow-self); }
  .arrow-cross { stroke: #cf222e; fill: none; stroke-width: 1.5; stroke-dasharray: 6,3; marker-end: url(#arrow-cross); }
</style>
<defs>
  <marker id="arrow-self" viewBox="0 0 10 10" refX="9" refY="5"
          markerWidth="6" markerHeight="6" orient="auto-start-reverse">
    <path d="M 0 0 L 10 5 L 0 10 z" fill="#656d76"/>
  </marker>
  <marker id="arrow-cross" viewBox="0 0 10 10" refX="9" refY="5"
          markerWidth="6" markerHeight="6" orient="auto-start-reverse">
    <path d="M 0 0 L 10 5 L 0 10 z" fill="#cf222e"/>
  </marker>
</defs>
<rect width="920" height="1588" fill="white"/>
<rect x="20" y="20" width="660" height="200" rx="8" fill="#ffffff" stroke="#d0d7de" stroke-width="1"/>
<rect x="20" y="20" width="660" height="34" rx="8" fill="#24292f"/>
<rect x="20" y="46" width="660" height="8" fill="#24292f"/>
<text x="36" y="42.0" class="header-text">UserService</text>
<rect x="36" y="66" width="220" height="136" rx="6" fill="#ddf4ff" stroke="#54aeff" stroke-width="0.5"/>
<text x="46" y="84" class="topic-text">UserEvents</text>
<rect x="44" y="94" width="204" height="22" rx="4" fill="#f6f8fa" stroke="#d0d7de" stroke-width="0.5"/>
<text x="52" y="109.0" class="event-text">UserRegistered</text>
<line x1="250" y1="105.0" x2="302" y2="105.0" class="arrow-self"/>
<rect x="304" y="94" width="220" height="22" rx="4" fill="#dafbe1" stroke="#4ac26b" stroke-width="0.5"/>
<text x="312" y="109.0" class="handler-text">on UserRegistered</text>
<rect x="44" y="120" width="204" height="22" rx="4" fill="#f6f8fa" stroke="#d0d7de" stroke-width="0.5"/>
<text x="52" y="135.0" class="event-text">UserVerified</text>
<line x1="250" y1="131.0" x2="302" y2="131.0" class="arrow-self"/>
<rect x="304" y="120" width="220" height="22" rx="4" fill="#dafbe1" stroke="#4ac26b" stroke-width="0.5"/>
<text x="312" y="135.0" class="handler-text">on UserVerified</text>
<rect x="44" y="146" width="204" height="22" rx="4" fill="#f6f8fa" stroke="#d0d7de" stroke-width="0.5"/>
<text x="52" y="161.0" class="event-text">UserStatusChanged</text>
<line x1="250" y1="157.0" x2="302" y2="157.0" class="arrow-self"/>
<rect x="304" y="146" width="220" height="22" rx="4" fill="#dafbe1" stroke="#4ac26b" stroke-width="0.5"/>
<text x="312" y="161.0" class="handler-text">on UserStatusChanged</text>
<rect x="44" y="172" width="204" height="22" rx="4" fill="#f6f8fa" stroke="#d0d7de" stroke-width="0.5"/>
<text x="52" y="187.0" class="event-text">UserLoggedIn</text>
<line x1="250" y1="183.0" x2="302" y2="183.0" class="arrow-self"/>
<rect x="304" y="172" width="220" height="22" rx="4" fill="#dafbe1" stroke="#4ac26b" stroke-width="0.5"/>
<text x="312" y="187.0" class="handler-text">on UserLoggedIn</text>
<rect x="20" y="264" width="660" height="280" rx="8" fill="#ffffff" stroke="#d0d7de" stroke-width="1"/>
<rect x="20" y="264" width="660" height="34" rx="8" fill="#24292f"/>
<rect x="20" y="290" width="660" height="8" fill="#24292f"/>
<text x="36" y="286.0" class="header-text">ProductService</text>
<rect x="36" y="310" width="220" height="136" rx="6" fill="#ddf4ff" stroke="#54aeff" stroke-width="0.5"/>
<text x="46" y="328" class="topic-text">ProductEvents</text>
<rect x="44" y="338" width="204" height="22" rx="4" fill="#f6f8fa" stroke="#d0d7de" stroke-width="0.5"/>
<text x="52" y="353.0" class="event-text">ProductCreated</text>
<line x1="250" y1="349.0" x2="302" y2="349.0" class="arrow-self"/>
<rect x="304" y="338" width="220" height="22" rx="4" fill="#dafbe1" stroke="#4ac26b" stroke-width="0.5"/>
<text x="312" y="353.0" class="handler-text">on ProductCreated</text>
<rect x="44" y="364" width="204" height="22" rx="4" fill="#f6f8fa" stroke="#d0d7de" stroke-width="0.5"/>
<text x="52" y="379.0" class="event-text">InventoryUpdated</text>
<line x1="250" y1="375.0" x2="302" y2="375.0" class="arrow-self"/>
<rect x="304" y="364" width="220" height="22" rx="4" fill="#dafbe1" stroke="#4ac26b" stroke-width="0.5"/>
<text x="312" y="379.0" class="handler-text">on InventoryUpdated</text>
<rect x="44" y="390" width="204" height="22" rx="4" fill="#f6f8fa" stroke="#d0d7de" stroke-width="0.5"/>
<text x="52" y="405.0" class="event-text">InventoryReserved</text>
<line x1="250" y1="401.0" x2="302" y2="401.0" class="arrow-self"/>
<rect x="304" y="390" width="220" height="22" rx="4" fill="#dafbe1" stroke="#4ac26b" stroke-width="0.5"/>
<text x="312" y="405.0" class="handler-text">on InventoryReserved</text>
<rect x="44" y="416" width="204" height="22" rx="4" fill="#f6f8fa" stroke="#d0d7de" stroke-width="0.5"/>
<text x="52" y="431.0" class="event-text">InventoryReleased</text>
<line x1="250" y1="427.0" x2="302" y2="427.0" class="arrow-self"/>
<rect x="304" y="416" width="220" height="22" rx="4" fill="#dafbe1" stroke="#4ac26b" stroke-width="0.5"/>
<text x="312" y="431.0" class="handler-text">on InventoryReleased</text>
<line x1="36" y1="455" x2="664" y2="455" stroke="#d8dee4" stroke-width="1" stroke-dasharray="4,3"/>
<text x="36" y="472" class="section-label">Subscribes to</text>
<rect x="36" y="482" width="220" height="22" rx="4" fill="#fff8c5" stroke="#d4a72c" stroke-width="0.5"/>
<text x="44" y="497.0" class="incoming-text">on OrderConfirmed</text>
<rect x="36" y="508" width="220" height="22" rx="4" fill="#fff8c5" stroke="#d4a72c" stroke-width="0.5"/>
<text x="44" y="523.0" class="incoming-text">on OrderCancelled</text>
<rect x="20" y="588" width="660" height="410" rx="8" fill="#ffffff" stroke="#d0d7de" stroke-width="1"/>
<rect x="20" y="588" width="660" height="34" rx="8" fill="#24292f"/>
<rect x="20" y="614" width="660" height="8" fill="#24292f"/>
<text x="36" y="610.0" class="header-text">OrderService</text>
<rect x="36" y="634" width="220" height="136" rx="6" fill="#ddf4ff" stroke="#54aeff" stroke-width="0.5"/>
<text x="46" y="652" class="topic-text">OrderEvents</text>
<rect x="44" y="662" width="204" height="22" rx="4" fill="#f6f8fa" stroke="#d0d7de" stroke-width="0.5"/>
<text x="52" y="677.0" class="event-text">OrderCreated</text>
<rect x="44" y="688" width="204" height="22" rx="4" fill="#f6f8fa" stroke="#d0d7de" stroke-width="0.5"/>
<text x="52" y="703.0" class="event-text">OrderConfirmed</text>
<rect x="44" y="714" width="204" height="22" rx="4" fill="#f6f8fa" stroke="#d0d7de" stroke-width="0.5"/>
<text x="52" y="729.0" class="event-text">OrderCancelled</text>
<rect x="44" y="740" width="204" height="22" rx="4" fill="#f6f8fa" stroke="#d0d7de" stroke-width="0.5"/>
<text x="52" y="755.0" class="event-text">OrderStatusChanged</text>
<line x1="250" y1="751.0" x2="302" y2="751.0" class="arrow-self"/>
<rect x="304" y="740" width="220" height="22" rx="4" fill="#dafbe1" stroke="#4ac26b" stroke-width="0.5"/>
<text x="312" y="755.0" class="handler-text">on OrderStatusChanged</text>
<line x1="36" y1="779" x2="664" y2="779" stroke="#d8dee4" stroke-width="1" stroke-dasharray="4,3"/>
<text x="36" y="796" class="section-label">Subscribes to</text>
<rect x="36" y="806" width="220" height="22" rx="4" fill="#fff8c5" stroke="#d4a72c" stroke-width="0.5"/>
<text x="44" y="821.0" class="incoming-text">on PaymentProcessed</text>
<rect x="36" y="832" width="220" height="22" rx="4" fill="#fff8c5" stroke="#d4a72c" stroke-width="0.5"/>
<text x="44" y="847.0" class="incoming-text">on PaymentFailed</text>
<rect x="36" y="858" width="220" height="22" rx="4" fill="#fff8c5" stroke="#d4a72c" stroke-width="0.5"/>
<text x="44" y="873.0" class="incoming-text">on PaymentRefunded</text>
<rect x="36" y="884" width="220" height="22" rx="4" fill="#fff8c5" stroke="#d4a72c" stroke-width="0.5"/>
<text x="44" y="899.0" class="incoming-text">on ShipmentCreated</text>
<rect x="36" y="910" width="220" height="22" rx="4" fill="#fff8c5" stroke="#d4a72c" stroke-width="0.5"/>
<text x="44" y="925.0" class="incoming-text">on ShipmentDispatched</text>
<rect x="36" y="936" width="220" height="22" rx="4" fill="#fff8c5" stroke="#d4a72c" stroke-width="0.5"/>
<text x="44" y="951.0" class="incoming-text">on ShipmentDelivered</text>
<rect x="36" y="962" width="220" height="22" rx="4" fill="#fff8c5" stroke="#d4a72c" stroke-width="0.5"/>
<text x="44" y="977.0" class="incoming-text">on ShipmentFailed</text>
<rect x="20" y="1042" width="660" height="228" rx="8" fill="#ffffff" stroke="#d0d7de" stroke-width="1"/>
<rect x="20" y="1042" width="660" height="34" rx="8" fill="#24292f"/>
<rect x="20" y="1068" width="660" height="8" fill="#24292f"/>
<text x="36" y="1064.0" class="header-text">PaymentService</text>
<rect x="36" y="1088" width="220" height="110" rx="6" fill="#ddf4ff" stroke="#54aeff" stroke-width="0.5"/>
<text x="46" y="1106" class="topic-text">PaymentEvents</text>
<rect x="44" y="1116" width="204" height="22" rx="4" fill="#f6f8fa" stroke="#d0d7de" stroke-width="0.5"/>
<text x="52" y="1131.0" class="event-text">PaymentProcessed</text>
<rect x="44" y="1142" width="204" height="22" rx="4" fill="#f6f8fa" stroke="#d0d7de" stroke-width="0.5"/>
<text x="52" y="1157.0" class="event-text">PaymentFailed</text>
<rect x="44" y="1168" width="204" height="22" rx="4" fill="#f6f8fa" stroke="#d0d7de" stroke-width="0.5"/>
<text x="52" y="1183.0" class="event-text">PaymentRefunded</text>
<line x1="36" y1="1207" x2="664" y2="1207" stroke="#d8dee4" stroke-width="1" stroke-dasharray="4,3"/>
<text x="36" y="1224" class="section-label">Subscribes to</text>
<rect x="36" y="1234" width="220" height="22" rx="4" fill="#fff8c5" stroke="#d4a72c" stroke-width="0.5"/>
<text x="44" y="1249.0" class="incoming-text">on OrderCreated</text>
<rect x="20" y="1314" width="660" height="254" rx="8" fill="#ffffff" stroke="#d0d7de" stroke-width="1"/>
<rect x="20" y="1314" width="660" height="34" rx="8" fill="#24292f"/>
<rect x="20" y="1340" width="660" height="8" fill="#24292f"/>
<text x="36" y="1336.0" class="header-text">ShippingService</text>
<rect x="36" y="1360" width="220" height="136" rx="6" fill="#ddf4ff" stroke="#54aeff" stroke-width="0.5"/>
<text x="46" y="1378" class="topic-text">ShipmentEvents</text>
<rect x="44" y="1388" width="204" height="22" rx="4" fill="#f6f8fa" stroke="#d0d7de" stroke-width="0.5"/>
<text x="52" y="1403.0" class="event-text">ShipmentCreated</text>
<rect x="44" y="1414" width="204" height="22" rx="4" fill="#f6f8fa" stroke="#d0d7de" stroke-width="0.5"/>
<text x="52" y="1429.0" class="event-text">ShipmentDispatched</text>
<rect x="44" y="1440" width="204" height="22" rx="4" fill="#f6f8fa" stroke="#d0d7de" stroke-width="0.5"/>
<text x="52" y="1455.0" class="event-text">ShipmentDelivered</text>
<rect x="44" y="1466" width="204" height="22" rx="4" fill="#f6f8fa" stroke="#d0d7de" stroke-width="0.5"/>
<text x="52" y="1481.0" class="event-text">ShipmentFailed</text>
<line x1="36" y1="1505" x2="664" y2="1505" stroke="#d8dee4" stroke-width="1" stroke-dasharray="4,3"/>
<text x="36" y="1522" class="section-label">Subscribes to</text>
<rect x="36" y="1532" width="220" height="22" rx="4" fill="#fff8c5" stroke="#d4a72c" stroke-width="0.5"/>
<text x="44" y="1547.0" class="incoming-text">on OrderConfirmed</text>
<path d="M 680 699.0 L 694.0 699.0 Q 700 699.0 700 693.0 L 700 499.0 Q 700 493.0 694.0 493.0 L 256 493.0" class="arrow-cross"/>
<text x="260" y="487.0" class="cross-label">OrderService.OrderConfirmed</text>
<path d="M 680 725.0 L 706.0 725.0 Q 712 725.0 712 719.0 L 712 525.0 Q 712 519.0 706.0 519.0 L 256 519.0" class="arrow-cross"/>
<text x="260" y="513.0" class="cross-label">OrderService.OrderCancelled</text>
<path d="M 680 1127.0 L 718.0 1127.0 Q 724 1127.0 724 1121.0 L 724 823.0 Q 724 817.0 718.0 817.0 L 256 817.0" class="arrow-cross"/>
<text x="260" y="811.0" class="cross-label">PaymentService.PaymentProcessed</text>
<path d="M 680 1153.0 L 730.0 1153.0 Q 736 1153.0 736 1147.0 L 736 849.0 Q 736 843.0 730.0 843.0 L 256 843.0" class="arrow-cross"/>
<text x="260" y="837.0" class="cross-label">PaymentService.PaymentFailed</text>
<path d="M 680 1179.0 L 742.0 1179.0 Q 748 1179.0 748 1173.0 L 748 875.0 Q 748 869.0 742.0 869.0 L 256 869.0" class="arrow-cross"/>
<text x="260" y="863.0" class="cross-label">PaymentService.PaymentRefunded</text>
<path d="M 680 1399.0 L 754.0 1399.0 Q 760 1399.0 760 1393.0 L 760 901.0 Q 760 895.0 754.0 895.0 L 256 895.0" class="arrow-cross"/>
<text x="260" y="889.0" class="cross-label">ShippingService.ShipmentCreated</text>
<path d="M 680 1425.0 L 766.0 1425.0 Q 772 1425.0 772 1419.0 L 772 927.0 Q 772 921.0 766.0 921.0 L 256 921.0" class="arrow-cross"/>
<text x="260" y="915.0" class="cross-label">ShippingService.ShipmentDispatched</text>
<path d="M 680 1451.0 L 778.0 1451.0 Q 784 1451.0 784 1445.0 L 784 953.0 Q 784 947.0 778.0 947.0 L 256 947.0" class="arrow-cross"/>
<text x="260" y="941.0" class="cross-label">ShippingService.ShipmentDelivered</text>
<path d="M 680 1477.0 L 790.0 1477.0 Q 796 1477.0 796 1471.0 L 796 979.0 Q 796 973.0 790.0 973.0 L 256 973.0" class="arrow-cross"/>
<text x="260" y="967.0" class="cross-label">ShippingService.ShipmentFailed</text>
<path d="M 680 673.0 L 802.0 673.0 Q 808 673.0 808 679.0 L 808 1239.0 Q 808 1245.0 802.0 1245.0 L 256 1245.0" class="arrow-cross"/>
<text x="260" y="1239.0" class="cross-label">OrderService.OrderCreated</text>
<path d="M 680 699.0 L 814.0 699.0 Q 820 699.0 820 705.0 L 820 1537.0 Q 820 1543.0 814.0 1543.0 L 256 1543.0" class="arrow-cross"/>
<text x="260" y="1537.0" class="cross-label">OrderService.OrderConfirmed</text>
</svg>