<svg xmlns="http://www.w3.org/2000/svg" viewBox="0 0 776 400">
<style>
  .entity-name { font: bold 13px "Segoe UI", system-ui, -apple-system, sans-serif; fill: #ffffff; }
  .field-name { font: 11px "Segoe UI", system-ui, -apple-system, sans-serif; fill: #1f2328; }
  .field-type { font: 11px "Segoe UI", system-ui, -apple-system, sans-serif; fill: #656d76; }
  .pk-badge { font: bold 9px "Segoe UI", system-ui, -apple-system, sans-serif; fill: #cf222e; }
  .rel-line { stroke: #8b949e; fill: none; stroke-width: 1.5; }
  .cardinality { font: bold 11px "Segoe UI", system-ui, -apple-system, sans-serif; fill: #57606a; }
  .rel-label { font: italic 10px "Segoe UI", system-ui, -apple-system, sans-serif; fill: #656d76; }
  .title { font: bold 16px "Segoe UI", system-ui, -apple-system, sans-serif; fill: #1f2328; }
  .subtitle { font: 11px "Segoe UI", system-ui, -apple-system, sans-serif; fill: #656d76; }
</style>
<defs>
  <filter id="shadow" x="-4%" y="-4%" width="108%" height="112%">
    <feDropShadow dx="0" dy="1" stdDeviation="3" flood-color="rgba(0,0,0,0.08)"/>
  </filter>
</defs>
<rect width="776" height="400" fill="white"/>
<text x="28" y="44" class="title">MemberService</text>
<text x="28" y="58" class="subtitle">Entity-Relationship Diagram</text>
<path d="M 328.0 196.0 C 388.0 196.0 388.0 119.0 448.0 119.0" class="rel-line"/>
<text x="343.0" y="198.3" text-anchor="middle" class="cardinality">1</text>
<text x="443.8" y="133.6" text-anchor="middle" class="cardinality">1</text>
<rect x="368.0" y="145.5" width="40" height="14" rx="3" fill="white" stroke="#d0d7de" stroke-width="0.5"/>
<text x="388.0" y="155.5" text-anchor="middle" class="rel-label">preferences</text>
<rect x="28.0" y="60" width="300.0" height="312.0" rx="6" fill="#ffffff" stroke="#d0d7de" stroke-width="1" filter="url(#shadow)"/>
<rect x="28.0" y="60" width="300.0" height="32" rx="6" fill="#24292f"/>
<rect x="28.0" y="86" width="300.0" height="6" fill="#24292f"/>
<text x="42.0" y="81.0" class="entity-name">Member</text>
<text x="68.0" y="115.0" class="field-name">firstName</text>
<text x="314.0" y="115.0" text-anchor="end" class="field-type">String(100)</text>
<line x1="42.0" y1="122" x2="314.0" y2="122" stroke="#f0f0f0" stroke-width="0.5"/>
<text x="68.0" y="137.0" class="field-name">lastName</text>
<text x="314.0" y="137.0" text-anchor="end" class="field-type">String(100)</text>
<line x1="42.0" y1="144" x2="314.0" y2="144" stroke="#f0f0f0" stroke-width="0.5"/>
<text x="68.0" y="159.0" class="field-name">email</text>
<text x="314.0" y="159.0" text-anchor="end" class="field-type">Email</text>
<line x1="42.0" y1="166" x2="314.0" y2="166" stroke="#f0f0f0" stroke-width="0.5"/>
<text x="68.0" y="181.0" class="field-name">phone?</text>
<text x="314.0" y="181.0" text-anchor="end" class="field-type">Phone</text>
<line x1="42.0" y1="188" x2="314.0" y2="188" stroke="#f0f0f0" stroke-width="0.5"/>
<text x="68.0" y="203.0" class="field-name">passwordHash?</text>
<text x="314.0" y="203.0" text-anchor="end" class="field-type">Password</text>
<line x1="42.0" y1="210" x2="314.0" y2="210" stroke="#f0f0f0" stroke-width="0.5"/>
<text x="68.0" y="225.0" class="field-name">membershipNumber</text>
<text x="314.0" y="225.0" text-anchor="end" class="field-type">String(20)</text>
<line x1="42.0" y1="232" x2="314.0" y2="232" stroke="#f0f0f0" stroke-width="0.5"/>
<text x="68.0" y="247.0" class="field-name">membershipType</text>
<text x="314.0" y="247.0" text-anchor="end" class="field-type">MembershipType</text>
<line x1="42.0" y1="254" x2="314.0" y2="254" stroke="#f0f0f0" stroke-width="0.5"/>
<text x="68.0" y="269.0" class="field-name">dateOfBirth?</text>
<text x="314.0" y="269.0" text-anchor="end" class="field-type">Date</text>
<line x1="42.0" y1="276" x2="314.0" y2="276" stroke="#f0f0f0" stroke-width="0.5"/>
<text x="68.0" y="291.0" class="field-name">membershipExpiry?</text>
<text x="314.0" y="291.0" text-anchor="end" class="field-type">Date</text>
<line x1="42.0" y1="298" x2="314.0" y2="298" stroke="#f0f0f0" stroke-width="0.5"/>
<text x="68.0" y="313.0" class="field-name">ssn?</text>
<text x="314.0" y="313.0" text-anchor="end" class="field-type">String(11)</text>
<line x1="42.0" y1="320" x2="314.0" y2="320" stroke="#f0f0f0" stroke-width="0.5"/>
<text x="68.0" y="335.0" class="field-name">libraryCardNumber?</text>
<text x="314.0" y="335.0" text-anchor="end" class="field-type">String(16)</text>
<line x1="42.0" y1="342" x2="314.0" y2="342" stroke="#f0f0f0" stroke-width="0.5"/>
<text x="68.0" y="357.0" class="field-name">lastLoginIp?</text>
<text x="314.0" y="357.0" text-anchor="end" class="field-type">IPAddress</text>
<rect x="448.0" y="60" width="300.0" height="158.0" rx="6" fill="#ffffff" stroke="#d0d7de" stroke-width="1" filter="url(#shadow)"/>
<rect x="448.0" y="60" width="300.0" height="32" rx="6" fill="#24292f"/>
<rect x="448.0" y="86" width="300.0" height="6" fill="#24292f"/>
<text x="462.0" y="81.0" class="entity-name">MemberPreferences</text>
<text x="488.0" y="115.0" class="field-name">language</text>
<text x="734.0" y="115.0" text-anchor="end" class="field-type">String(10)</text>
<line x1="462.0" y1="122" x2="734.0" y2="122" stroke="#f0f0f0" stroke-width="0.5"/>
<text x="488.0" y="137.0" class="field-name">timezone</text>
<text x="734.0" y="137.0" text-anchor="end" class="field-type">String(50)</text>
<line x1="462.0" y1="144" x2="734.0" y2="144" stroke="#f0f0f0" stroke-width="0.5"/>
<text x="488.0" y="159.0" class="field-name">emailNotifications</text>
<text x="734.0" y="159.0" text-anchor="end" class="field-type">Boolean</text>
<line x1="462.0" y1="166" x2="734.0" y2="166" stroke="#f0f0f0" stroke-width="0.5"/>
<text x="488.0" y="181.0" class="field-name">smsNotifications</text>
<text x="734.0" y="181.0" text-anchor="end" class="field-type">Boolean</text>
<line x1="462.0" y1="188" x2="734.0" y2="188" stroke="#f0f0f0" stroke-width="0.5"/>
<text x="488.0" y="203.0" class="field-name">preferences</text>
<text x="734.0" y="203.0" text-anchor="end" class="field-type">JSON</text>
</svg>