<svg xmlns="http://www.w3.org/2000/svg" viewBox="0 0 656 272">
<style>
  .svc-label { font: bold 11px 'Segoe UI', system-ui, -apple-system, sans-serif; fill: #ffffff; }
  .infra-label { font: bold 11px 'Segoe UI', system-ui, -apple-system, sans-serif; fill: #1f2328; }
  .section-label { font: bold 10px 'Segoe UI', system-ui, -apple-system, sans-serif; fill: #656d76; text-transform: uppercase; letter-spacing: 0.5px; }
</style>
<defs><marker id="http-arrow" viewBox="0 0 10 10" refX="9" refY="5" markerWidth="6" markerHeight="6" orient="auto-start-reverse"><path d="M 0 0 L 10 5 L 0 10 z" fill="#57606a"/></marker></defs>
<rect width="656" height="272" fill="white"/>
<text x="28" y="44" style="font: bold 16px 'Segoe UI', system-ui, -apple-system, sans-serif; fill: #1f2328;">Service Map</text>
<text x="28" y="60" style="font: 11px 'Segoe UI', system-ui, -apple-system, sans-serif; fill: #656d76;">Services and shared infrastructure</text>
<text x="28" y="66" class="section-label">Services</text>
<text x="28" y="198" class="section-label">Infrastructure</text>
<path d="M 118.0 112.0 C 118.0 160.0 213.0 160.0 213.0 208.0" stroke="#b0b8c0" fill="none" stroke-width="1.0"/>
<path d="M 328.0 112.0 C 270.5 112.0 270.5 208.0 213.0 208.0" stroke="#b0b8c0" fill="none" stroke-width="1.0"/>
<path d="M 538.0 112.0 C 375.5 112.0 375.5 208.0 213.0 208.0" stroke="#b0b8c0" fill="none" stroke-width="1.0"/>
<path d="M 118.0 112.0 C 280.5 112.0 280.5 208.0 443.0 208.0" stroke="#b0b8c0" fill="none" stroke-width="1.0"/>
<path d="M 448.0 94.0 C 328.0 94.0 328.0 94.0 208.0 94.0" stroke="#57606a" fill="none" stroke-width="1.0" marker-end="url(#http-arrow)"/>
<path d="M 448.0 94.0 C 433.0 94.0 433.0 94.0 418.0 94.0" stroke="#57606a" fill="none" stroke-width="1.0" marker-end="url(#http-arrow)"/>
<rect x="28.0" y="76" width="180" height="36" rx="8" fill="#24292f" stroke="#d0d7de" stroke-width="1"/>
<text x="118.0" y="98.0" text-anchor="middle" class="svc-label">BookService</text>
<rect x="238.0" y="76" width="180" height="36" rx="8" fill="#24292f" stroke="#d0d7de" stroke-width="1"/>
<text x="328.0" y="98.0" text-anchor="middle" class="svc-label">MemberService</text>
<rect x="448.0" y="76" width="180" height="36" rx="8" fill="#24292f" stroke="#d0d7de" stroke-width="1"/>
<text x="538.0" y="98.0" text-anchor="middle" class="svc-label">LoanService</text>
<rect x="113.0" y="208" width="200" height="36" rx="6" fill="#ddf4ff" stroke="#54aeff" stroke-width="1"/>
<text x="213.0" y="230.0" text-anchor="middle" class="infra-label">postgres (localhost:5432)</text>
<rect x="343.0" y="208" width="200" height="36" rx="6" fill="#fff8c5" stroke="#d4a72c" stroke-width="1"/>
<text x="443.0" y="230.0" text-anchor="middle" class="infra-label">kafka (localhost:9092)</text>
</svg>