<svg xmlns="http://www.w3.org/2000/svg" viewBox="0 0 812 810">
<style>
  .header-text { font: bold 13px "Segoe UI", system-ui, -apple-system, sans-serif; fill: #ffffff; }
  .topic-text { font: bold 11px "Segoe UI", system-ui, -apple-system, sans-serif; fill: #0550ae; }
  .event-text { font: 11px "Segoe UI", system-ui, -apple-system, sans-serif; fill: #1f2328; }
  .handler-text { font: 11px "Segoe UI", system-ui, -apple-system, sans-serif; fill: #116329; }
  .incoming-text { font: 11px "Segoe UI", system-ui, -apple-system, sans-serif; fill: #7d4e00; }
  .section-label { font: bold 10px "Segoe UI", system-ui, -apple-system, sans-serif; fill: #656d76; text-transform: uppercase; letter-spacing: 0.5px; }
  .cross-label { font: italic 10px "Segoe UI", system-ui, -apple-system, sans-serif; fill: #a40e26; }
  .arrow-self { stroke: #656d76; fill: none; stroke-width: 1.5; marker-end: url(#arrow-self); }
  .arrow-cross { stroke: #cf222e; fill: none; stroke-width: 1.5; stroke-dasharray: 6,3; marker-end: url(#arrow-cross); }
</style>
<defs>
  <marker id="arrow-self" viewBox="0 0 10 10" refX="9" refY="5"
          markerWidth="6" markerHeight="6" orient="auto-start-reverse">
    <path d="M 0 0 L 10 5 L 0 10 z" fill="#656d76"/>
  </marker>
  <marker id="arrow-cross" viewBox="0 0 10 10" refX="9" refY="5"
          markerWidth="6" markerHeight="6" orient="auto-start-reverse">
    <path d="M 0 0 L 10 5 L 0 10 z" fill="#cf222e"/>
  </marker>
</defs>
<rect width="812" height="810" fill="white"/>
<rect x="20" y="20" width="660" height="174" rx="8" fill="#ffffff" stroke="#d0d7de" stroke-width="1"/>
<rect x="20" y="20" width="660" height="34" rx="8" fill="#24292f"/>
<rect x="20" y="46" width="660" height="8" fill="#24292f"/>
<text x="36" y="42.0" class="header-text">PatientService</text>
<rect x="36" y="66" width="220" height="110" rx="6" fill="#ddf4ff" stroke="#54aeff" stroke-width="0.5"/>
<text x="46" y="84" class="topic-text">PatientEvents</text>
<rect x="44" y="94" width="204" height="22" rx="4" fill="#f6f8fa" stroke="#d0d7de" stroke-width="0.5"/>
<text x="52" y="109.0" class="event-text">PatientRegistered</text>
<line x1="250" y1="105.0" x2="302" y2="105.0" class="arrow-self"/>
<rect x="304" y="94" width="220" height="22" rx="4" fill="#dafbe1" stroke="#4ac26b" stroke-width="0.5"/>
<text x="312" y="109.0" class="handler-text">on PatientRegistered</text>
<rect x="44" y="120" width="204" height="22" rx="4" fill="#f6f8fa" stroke="#d0d7de" stroke-width="0.5"/>
<text x="52" y="135.0" class="event-text">PatientStatusChanged</text>
<rect x="44" y="146" width="204" height="22" rx="4" fill="#f6f8fa" stroke="#d0d7de" stroke-width="0.5"/>
<text x="52" y="161.0" class="event-text">PatientUpdated</text>
<line x1="250" y1="157.0" x2="302" y2="157.0" class="arrow-self"/>
<rect x="304" y="146" width="220" height="22" rx="4" fill="#dafbe1" stroke="#4ac26b" stroke-width="0.5"/>
<text x="312" y="161.0" class="handler-text">on PatientUpdated</text>
<rect x="20" y="238" width="660" height="254" rx="8" fill="#ffffff" stroke="#d0d7de" stroke-width="1"/>
<rect x="20" y="238" width="660" height="34" rx="8" fill="#24292f"/>
<rect x="20" y="264" width="660" height="8" fill="#24292f"/>
<text x="36" y="260.0" class="header-text">AppointmentService</text>
<rect x="36" y="284" width="220" height="136" rx="6" fill="#ddf4ff" stroke="#54aeff" stroke-width="0.5"/>
<text x="46" y="302" class="topic-text">AppointmentEvents</text>
<rect x="44" y="312" width="204" height="22" rx="4" fill="#f6f8fa" stroke="#d0d7de" stroke-width="0.5"/>
<text x="52" y="327.0" class="event-text">AppointmentScheduled</text>
<line x1="250" y1="323.0" x2="302" y2="323.0" class="arrow-self"/>
<rect x="304" y="312" width="220" height="22" rx="4" fill="#dafbe1" stroke="#4ac26b" stroke-width="0.5"/>
<text x="312" y="327.0" class="handler-text">on AppointmentScheduled</text>
<rect x="44" y="338" width="204" height="22" rx="4" fill="#f6f8fa" stroke="#d0d7de" stroke-width="0.5"/>
<text x="52" y="353.0" class="event-text">AppointmentStatusChanged</text>
<line x1="250" y1="349.0" x2="302" y2="349.0" class="arrow-self"/>
<rect x="304" y="338" width="220" height="22" rx="4" fill="#dafbe1" stroke="#4ac26b" stroke-width="0.5"/>
<text x="312" y="353.0" class="handler-text">on AppointmentStatusChanged</text>
<rect x="44" y="364" width="204" height="22" rx="4" fill="#f6f8fa" stroke="#d0d7de" stroke-width="0.5"/>
<text x="52" y="379.0" class="event-text">AppointmentCompleted</text>
<rect x="44" y="390" width="204" height="22" rx="4" fill="#f6f8fa" stroke="#d0d7de" stroke-width="0.5"/>
<text x="52" y="405.0" class="event-text">AppointmentCancelled</text>
<line x1="250" y1="401.0" x2="302" y2="401.0" class="arrow-self"/>
<rect x="304" y="390" width="220" height="22" rx="4" fill="#dafbe1" stroke="#4ac26b" stroke-width="0.5"/>
<text x="312" y="405.0" class="handler-text">on AppointmentCancelled</text>
<line x1="36" y1="429" x2="664" y2="429" stroke="#d8dee4" stroke-width="1" stroke-dasharray="4,3"/>
<text x="36" y="446" class="section-label">Subscribes to</text>
<rect x="36" y="456" width="220" height="22" rx="4" fill="#fff8c5" stroke="#d4a72c" stroke-width="0.5"/>
<text x="44" y="471.0" class="incoming-text">on PatientStatusChanged</text>
<rect x="20" y="536" width="660" height="254" rx="8" fill="#ffffff" stroke="#d0d7de" stroke-width="1"/>
<rect x="20" y="536" width="660" height="34" rx="8" fill="#24292f"/>
<rect x="20" y="562" width="660" height="8" fill="#24292f"/>
<text x="36" y="558.0" class="header-text">MedicalRecordService</text>
<rect x="36" y="582" width="220" height="136" rx="6" fill="#ddf4ff" stroke="#54aeff" stroke-width="0.5"/>
<text x="46" y="600" class="topic-text">RecordEvents</text>
<rect x="44" y="610" width="204" height="22" rx="4" fill="#f6f8fa" stroke="#d0d7de" stroke-width="0.5"/>
<text x="52" y="625.0" class="event-text">RecordCreated</text>
<line x1="250" y1="621.0" x2="302" y2="621.0" class="arrow-self"/>
<rect x="304" y="610" width="220" height="22" rx="4" fill="#dafbe1" stroke="#4ac26b" stroke-width="0.5"/>
<text x="312" y="625.0" class="handler-text">on RecordCreated</text>
<rect x="44" y="636" width="204" height="22" rx="4" fill="#f6f8fa" stroke="#d0d7de" stroke-width="0.5"/>
<text x="52" y="651.0" class="event-text">RecordFinalized</text>
<line x1="250" y1="647.0" x2="302" y2="647.0" class="arrow-self"/>
<rect x="304" y="636" width="220" height="22" rx="4" fill="#dafbe1" stroke="#4ac26b" stroke-width="0.5"/>
<text x="312" y="651.0" class="handler-text">on RecordFinalized</text>
<rect x="44" y="662" width="204" height="22" rx="4" fill="#f6f8fa" stroke="#d0d7de" stroke-width="0.5"/>
<text x="52" y="677.0" class="event-text">RecordAmended</text>
<line x1="250" y1="673.0" x2="302" y2="673.0" class="arrow-self"/>
<rect x="304" y="662" width="220" height="22" rx="4" fill="#dafbe1" stroke="#4ac26b" stroke-width="0.5"/>
<text x="312" y="677.0" class="handler-text">on RecordAmended</text>
<rect x="44" y="688" width="204" height="22" rx="4" fill="#f6f8fa" stroke="#d0d7de" stroke-width="0.5"/>
<text x="52" y="703.0" class="event-text">PrescriptionCreated</text>
<line x1="250" y1="699.0" x2="302" y2="699.0" class="arrow-self"/>
<rect x="304" y="688" width="220" height="22" rx="4" fill="#dafbe1" stroke="#4ac26b" stroke-width="0.5"/>
<text x="312" y="703.0" class="handler-text">on PrescriptionCreated</text>
<line x1="36" y1="727" x2="664" y2="727" stroke="#d8dee4" stroke-width="1" stroke-dasharray="4,3"/>
<text x="36" y="744" class="section-label">Subscribes to</text>
<rect x="36" y="754" width="220" height="22" rx="4" fill="#fff8c5" stroke="#d4a72c" stroke-width="0.5"/>
<text x="44" y="769.0" class="incoming-text">on AppointmentCompleted</text>
<path d="M 680 131.0 L 694.0 131.0 Q 700 131.0 700 137.0 L 700 461.0 Q 700 467.0 694.0 467.0 L 256 467.0" class="arrow-cross"/>
<text x="260" y="461.0" class="cross-label">PatientService.PatientStatusChanged</text>
<path d="M 680 375.0 L 706.0 375.0 Q 712 375.0 712 381.0 L 712 759.0 Q 712 765.0 706.0 765.0 L 256 765.0" class="arrow-cross"/>
<text x="260" y="759.0" class="cross-label">AppointmentService.AppointmentCompleted</text>
</svg>