<svg xmlns="http://www.w3.org/2000/svg" viewBox="0 0 400 584">
<style>
  .entity-name { font: bold 13px "Segoe UI", system-ui, -apple-system, sans-serif; fill: #ffffff; }
  .field-name { font: 11px "Segoe UI", system-ui, -apple-system, sans-serif; fill: #1f2328; }
  .field-type { font: 11px "Segoe UI", system-ui, -apple-system, sans-serif; fill: #656d76; }
  .pk-badge { font: bold 9px "Segoe UI", system-ui, -apple-system, sans-serif; fill: #cf222e; }
  .rel-line { stroke: #8b949e; fill: none; stroke-width: 1.5; }
  .cardinality { font: bold 11px "Segoe UI", system-ui, -apple-system, sans-serif; fill: #57606a; }
  .rel-label { font: italic 10px "Segoe UI", system-ui, -apple-system, sans-serif; fill: #656d76; }
  .title { font: bold 16px "Segoe UI", system-ui, -apple-system, sans-serif; fill: #1f2328; }
  .subtitle { font: 11px "Segoe UI", system-ui, -apple-system, sans-serif; fill: #656d76; }
</style>
<defs>
  <filter id="shadow" x="-4%" y="-4%" width="108%" height="112%">
    <feDropShadow dx="0" dy="1" stdDeviation="3" flood-color="rgba(0,0,0,0.08)"/>
  </filter>
</defs>
<rect width="400" height="584" fill="white"/>
<text x="28" y="44" class="title">AuthorService</text>
<text x="28" y="58" class="subtitle">Entity-Relationship Diagram</text>
<path d="M 180.0 350.0 C 180.0 385.0 180.0 385.0 180.0 420.0" class="rel-line"/>
<text x="170.0" y="355.6" text-anchor="middle" class="cardinality">1</text>
<text x="170.0" y="414.4" text-anchor="middle" class="cardinality">*</text>
<rect x="50.0" y="60" width="300.0" height="290.0" rx="6" fill="#ffffff" stroke="#d0d7de" stroke-width="1" filter="url(#shadow)"/>
<rect x="50.0" y="60" width="300.0" height="32" rx="6" fill="#24292f"/>
<rect x="50.0" y="86" width="300.0" height="6" fill="#24292f"/>
<text x="64.0" y="81.0" class="entity-name">Author</text>
<text x="90.0" y="115.0" class="field-name">email</text>
<text x="336.0" y="115.0" text-anchor="end" class="field-type">Email</text>
<line x1="64.0" y1="122" x2="336.0" y2="122" stroke="#f0f0f0" stroke-width="0.5"/>
<text x="90.0" y="137.0" class="field-name">passwordHash</text>
<text x="336.0" y="137.0" text-anchor="end" class="field-type">Password</text>
<line x1="64.0" y1="144" x2="336.0" y2="144" stroke="#f0f0f0" stroke-width="0.5"/>
<text x="90.0" y="159.0" class="field-name">firstName</text>
<text x="336.0" y="159.0" text-anchor="end" class="field-type">String(100)</text>
<line x1="64.0" y1="166" x2="336.0" y2="166" stroke="#f0f0f0" stroke-width="0.5"/>
<text x="90.0" y="181.0" class="field-name">lastName</text>
<text x="336.0" y="181.0" text-anchor="end" class="field-type">String(100)</text>
<line x1="64.0" y1="188" x2="336.0" y2="188" stroke="#f0f0f0" stroke-width="0.5"/>
<text x="90.0" y="203.0" class="field-name">bio?</text>
<text x="336.0" y="203.0" text-anchor="end" class="field-type">String(200)</text>
<line x1="64.0" y1="210" x2="336.0" y2="210" stroke="#f0f0f0" stroke-width="0.5"/>
<text x="90.0" y="225.0" class="field-name">avatarUrl?</text>
<text x="336.0" y="225.0" text-anchor="end" class="field-type">URL</text>
<line x1="64.0" y1="232" x2="336.0" y2="232" stroke="#f0f0f0" stroke-width="0.5"/>
<text x="90.0" y="247.0" class="field-name">role</text>
<text x="336.0" y="247.0" text-anchor="end" class="field-type">AuthorRole</text>
<line x1="64.0" y1="254" x2="336.0" y2="254" stroke="#f0f0f0" stroke-width="0.5"/>
<text x="90.0" y="269.0" class="field-name">status</text>
<text x="336.0" y="269.0" text-anchor="end" class="field-type">AuthorStatus</text>
<line x1="64.0" y1="276" x2="336.0" y2="276" stroke="#f0f0f0" stroke-width="0.5"/>
<text x="90.0" y="291.0" class="field-name">lastLoginAt?</text>
<text x="336.0" y="291.0" text-anchor="end" class="field-type">DateTime</text>
<line x1="64.0" y1="298" x2="336.0" y2="298" stroke="#f0f0f0" stroke-width="0.5"/>
<text x="90.0" y="313.0" class="field-name">emailVerifiedAt?</text>
<text x="336.0" y="313.0" text-anchor="end" class="field-type">DateTime</text>
<line x1="64.0" y1="320" x2="336.0" y2="320" stroke="#f0f0f0" stroke-width="0.5"/>
<text x="90.0" y="335.0" class="field-name">emailVerificationToken?</text>
<text x="336.0" y="335.0" text-anchor="end" class="field-type">String</text>
<rect x="50.0" y="420.0" width="300.0" height="136.0" rx="6" fill="#ffffff" stroke="#d0d7de" stroke-width="1" filter="url(#shadow)"/>
<rect x="50.0" y="420.0" width="300.0" height="32" rx="6" fill="#24292f"/>
<rect x="50.0" y="446.0" width="300.0" height="6" fill="#24292f"/>
<text x="64.0" y="441.0" class="entity-name">AuthorSession</text>
<text x="90.0" y="475.0" class="field-name">token</text>
<text x="336.0" y="475.0" text-anchor="end" class="field-type">String(255)</text>
<line x1="64.0" y1="482.0" x2="336.0" y2="482.0" stroke="#f0f0f0" stroke-width="0.5"/>
<text x="90.0" y="497.0" class="field-name">deviceName</text>
<text x="336.0" y="497.0" text-anchor="end" class="field-type">String(100)</text>
<line x1="64.0" y1="504.0" x2="336.0" y2="504.0" stroke="#f0f0f0" stroke-width="0.5"/>
<text x="90.0" y="519.0" class="field-name">ipAddress?</text>
<text x="336.0" y="519.0" text-anchor="end" class="field-type">IPAddress</text>
<line x1="64.0" y1="526.0" x2="336.0" y2="526.0" stroke="#f0f0f0" stroke-width="0.5"/>
<text x="90.0" y="541.0" class="field-name">expiresAt</text>
<text x="336.0" y="541.0" text-anchor="end" class="field-type">DateTime</text>
</svg>