<svg xmlns="http://www.w3.org/2000/svg" viewBox="0 0 400 430">
<style>
  .entity-name { font: bold 13px "Segoe UI", system-ui, -apple-system, sans-serif; fill: #ffffff; }
  .field-name { font: 11px "Segoe UI", system-ui, -apple-system, sans-serif; fill: #1f2328; }
  .field-type { font: 11px "Segoe UI", system-ui, -apple-system, sans-serif; fill: #656d76; }
  .pk-badge { font: bold 9px "Segoe UI", system-ui, -apple-system, sans-serif; fill: #cf222e; }
  .rel-line { stroke: #8b949e; fill: none; stroke-width: 1.5; }
  .cardinality { font: bold 11px "Segoe UI", system-ui, -apple-system, sans-serif; fill: #57606a; }
  .rel-label { font: italic 10px "Segoe UI", system-ui, -apple-system, sans-serif; fill: #656d76; }
  .title { font: bold 16px "Segoe UI", system-ui, -apple-system, sans-serif; fill: #1f2328; }
  .subtitle { font: 11px "Segoe UI", system-ui, -apple-system, sans-serif; fill: #656d76; }
</style>
<defs>
  <filter id="shadow" x="-4%" y="-4%" width="108%" height="112%">
    <feDropShadow dx="0" dy="1" stdDeviation="3" flood-color="rgba(0,0,0,0.08)"/>
  </filter>
</defs>
<rect width="400" height="430" fill="white"/>
<text x="28" y="44" class="title">BookService</text>
<text x="28" y="58" class="subtitle">Entity-Relationship Diagram</text>
<path d="M 180.0 152.0 C 180.0 187.0 180.0 187.0 180.0 222.0" class="rel-line"/>
<text x="170.0" y="157.6" text-anchor="middle" class="cardinality">1</text>
<text x="170.0" y="216.4" text-anchor="middle" class="cardinality">*</text>
<rect x="160.0" y="175.0" width="40" height="14" rx="3" fill="white" stroke="#d0d7de" stroke-width="0.5"/>
<text x="180.0" y="185.0" text-anchor="middle" class="rel-label">books</text>
<rect x="50.0" y="60" width="300.0" height="92.0" rx="6" fill="#ffffff" stroke="#d0d7de" stroke-width="1" filter="url(#shadow)"/>
<rect x="50.0" y="60" width="300.0" height="32" rx="6" fill="#24292f"/>
<rect x="50.0" y="86" width="300.0" height="6" fill="#24292f"/>
<text x="64.0" y="81.0" class="entity-name">Category</text>
<text x="90.0" y="115.0" class="field-name">name</text>
<text x="336.0" y="115.0" text-anchor="end" class="field-type">String(100)</text>
<line x1="64.0" y1="122" x2="336.0" y2="122" stroke="#f0f0f0" stroke-width="0.5"/>
<text x="90.0" y="137.0" class="field-name">description?</text>
<text x="336.0" y="137.0" text-anchor="end" class="field-type">String(500)</text>
<rect x="50.0" y="222.0" width="300.0" height="180.0" rx="6" fill="#ffffff" stroke="#d0d7de" stroke-width="1" filter="url(#shadow)"/>
<rect x="50.0" y="222.0" width="300.0" height="32" rx="6" fill="#24292f"/>
<rect x="50.0" y="248.0" width="300.0" height="6" fill="#24292f"/>
<text x="64.0" y="243.0" class="entity-name">Book</text>
<text x="90.0" y="277.0" class="field-name">title</text>
<text x="336.0" y="277.0" text-anchor="end" class="field-type">String(200)</text>
<line x1="64.0" y1="284.0" x2="336.0" y2="284.0" stroke="#f0f0f0" stroke-width="0.5"/>
<text x="90.0" y="299.0" class="field-name">isbn</text>
<text x="336.0" y="299.0" text-anchor="end" class="field-type">String(20)</text>
<line x1="64.0" y1="306.0" x2="336.0" y2="306.0" stroke="#f0f0f0" stroke-width="0.5"/>
<text x="90.0" y="321.0" class="field-name">author</text>
<text x="336.0" y="321.0" text-anchor="end" class="field-type">String(100)</text>
<line x1="64.0" y1="328.0" x2="336.0" y2="328.0" stroke="#f0f0f0" stroke-width="0.5"/>
<text x="90.0" y="343.0" class="field-name">publicationYear</text>
<text x="336.0" y="343.0" text-anchor="end" class="field-type">Integer</text>
<line x1="64.0" y1="350.0" x2="336.0" y2="350.0" stroke="#f0f0f0" stroke-width="0.5"/>
<text x="90.0" y="365.0" class="field-name">status</text>
<text x="336.0" y="365.0" text-anchor="end" class="field-type">BookStatus</text>
<line x1="64.0" y1="372.0" x2="336.0" y2="372.0" stroke="#f0f0f0" stroke-width="0.5"/>
<text x="90.0" y="387.0" class="field-name">format</text>
<text x="336.0" y="387.0" text-anchor="end" class="field-type">BookFormat</text>
</svg>