<svg xmlns="http://www.w3.org/2000/svg" viewBox="0 0 400 532">
<style>
  .entity-name { font: bold 13px "Segoe UI", system-ui, -apple-system, sans-serif; fill: #ffffff; }
  .field-name { font: 11px "Segoe UI", system-ui, -apple-system, sans-serif; fill: #1f2328; }
  .field-type { font: 11px "Segoe UI", system-ui, -apple-system, sans-serif; fill: #656d76; }
  .pk-badge { font: bold 9px "Segoe UI", system-ui, -apple-system, sans-serif; fill: #cf222e; }
  .rel-line { stroke: #8b949e; fill: none; stroke-width: 1.5; }
  .cardinality { font: bold 11px "Segoe UI", system-ui, -apple-system, sans-serif; fill: #57606a; }
  .rel-label { font: italic 10px "Segoe UI", system-ui, -apple-system, sans-serif; fill: #656d76; }
  .title { font: bold 16px "Segoe UI", system-ui, -apple-system, sans-serif; fill: #1f2328; }
  .subtitle { font: 11px "Segoe UI", system-ui, -apple-system, sans-serif; fill: #656d76; }
</style>
<defs>
  <filter id="shadow" x="-4%" y="-4%" width="108%" height="112%">
    <feDropShadow dx="0" dy="1" stdDeviation="3" flood-color="rgba(0,0,0,0.08)"/>
  </filter>
</defs>
<rect width="400" height="532" fill="white"/>
<text x="28" y="44" class="title">PatientService</text>
<text x="28" y="58" class="subtitle">Entity-Relationship Diagram</text>
<rect x="50.0" y="60" width="300.0" height="444.0" rx="6" fill="#ffffff" stroke="#d0d7de" stroke-width="1" filter="url(#shadow)"/>
<rect x="50.0" y="60" width="300.0" height="32" rx="6" fill="#24292f"/>
<rect x="50.0" y="86" width="300.0" height="6" fill="#24292f"/>
<text x="64.0" y="81.0" class="entity-name">Patient</text>
<text x="90.0" y="115.0" class="field-name">deletedAt?</text>
<text x="336.0" y="115.0" text-anchor="end" class="field-type">DateTime</text>
<line x1="64.0" y1="122" x2="336.0" y2="122" stroke="#f0f0f0" stroke-width="0.5"/>
<text x="90.0" y="137.0" class="field-name">deletedBy?</text>
<text x="336.0" y="137.0" text-anchor="end" class="field-type">UUID</text>
<line x1="64.0" y1="144" x2="336.0" y2="144" stroke="#f0f0f0" stroke-width="0.5"/>
<text x="90.0" y="159.0" class="field-name">mrn</text>
<text x="336.0" y="159.0" text-anchor="end" class="field-type">String(20)</text>
<line x1="64.0" y1="166" x2="336.0" y2="166" stroke="#f0f0f0" stroke-width="0.5"/>
<text x="90.0" y="181.0" class="field-name">firstName</text>
<text x="336.0" y="181.0" text-anchor="end" class="field-type">String(100)</text>
<line x1="64.0" y1="188" x2="336.0" y2="188" stroke="#f0f0f0" stroke-width="0.5"/>
<text x="90.0" y="203.0" class="field-name">lastName</text>
<text x="336.0" y="203.0" text-anchor="end" class="field-type">String(100)</text>
<line x1="64.0" y1="210" x2="336.0" y2="210" stroke="#f0f0f0" stroke-width="0.5"/>
<text x="90.0" y="225.0" class="field-name">middleName?</text>
<text x="336.0" y="225.0" text-anchor="end" class="field-type">String(100)</text>
<line x1="64.0" y1="232" x2="336.0" y2="232" stroke="#f0f0f0" stroke-width="0.5"/>
<text x="90.0" y="247.0" class="field-name">dateOfBirth</text>
<text x="336.0" y="247.0" text-anchor="end" class="field-type">Date</text>
<line x1="64.0" y1="254" x2="336.0" y2="254" stroke="#f0f0f0" stroke-width="0.5"/>
<text x="90.0" y="269.0" class="field-name">gender</text>
<text x="336.0" y="269.0" text-anchor="end" class="field-type">Gender</text>
<line x1="64.0" y1="276" x2="336.0" y2="276" stroke="#f0f0f0" stroke-width="0.5"/>
<text x="90.0" y="291.0" class="field-name">bloodType?</text>
<text x="336.0" y="291.0" text-anchor="end" class="field-type">BloodType</text>
<line x1="64.0" y1="298" x2="336.0" y2="298" stroke="#f0f0f0" stroke-width="0.5"/>
<text x="90.0" y="313.0" class="field-name">status</text>
<text x="336.0" y="313.0" text-anchor="end" class="field-type">PatientStatus</text>
<line x1="64.0" y1="320" x2="336.0" y2="320" stroke="#f0f0f0" stroke-width="0.5"/>
<text x="90.0" y="335.0" class="field-name">email?</text>
<text x="336.0" y="335.0" text-anchor="end" class="field-type">Email</text>
<line x1="64.0" y1="342" x2="336.0" y2="342" stroke="#f0f0f0" stroke-width="0.5"/>
<text x="90.0" y="357.0" class="field-name">phone?</text>
<text x="336.0" y="357.0" text-anchor="end" class="field-type">Phone</text>
<line x1="64.0" y1="364" x2="336.0" y2="364" stroke="#f0f0f0" stroke-width="0.5"/>
<text x="90.0" y="379.0" class="field-name">address?</text>
<text x="336.0" y="379.0" text-anchor="end" class="field-type">Address</text>
<line x1="64.0" y1="386" x2="336.0" y2="386" stroke="#f0f0f0" stroke-width="0.5"/>
<text x="90.0" y="401.0" class="field-name">emergencyContact?</text>
<text x="336.0" y="401.0" text-anchor="end" class="field-type">EmergencyContact</text>
<line x1="64.0" y1="408" x2="336.0" y2="408" stroke="#f0f0f0" stroke-width="0.5"/>
<text x="90.0" y="423.0" class="field-name">primaryInsurance?</text>
<text x="336.0" y="423.0" text-anchor="end" class="field-type">InsuranceInfo</text>
<line x1="64.0" y1="430" x2="336.0" y2="430" stroke="#f0f0f0" stroke-width="0.5"/>
<text x="90.0" y="445.0" class="field-name">secondaryInsurance?</text>
<text x="336.0" y="445.0" text-anchor="end" class="field-type">InsuranceInfo</text>
<line x1="64.0" y1="452" x2="336.0" y2="452" stroke="#f0f0f0" stroke-width="0.5"/>
<text x="90.0" y="467.0" class="field-name">ssn?</text>
<text x="336.0" y="467.0" text-anchor="end" class="field-type">String(11)</text>
<line x1="64.0" y1="474" x2="336.0" y2="474" stroke="#f0f0f0" stroke-width="0.5"/>
<text x="90.0" y="489.0" class="field-name">driversLicense?</text>
<text x="336.0" y="489.0" text-anchor="end" class="field-type">String(50)</text>
</svg>