<svg xmlns="http://www.w3.org/2000/svg" viewBox="0 0 776 760">
<style>
  .entity-name { font: bold 13px "Segoe UI", system-ui, -apple-system, sans-serif; fill: #ffffff; }
  .field-name { font: 11px "Segoe UI", system-ui, -apple-system, sans-serif; fill: #1f2328; }
  .field-type { font: 11px "Segoe UI", system-ui, -apple-system, sans-serif; fill: #656d76; }
  .pk-badge { font: bold 9px "Segoe UI", system-ui, -apple-system, sans-serif; fill: #cf222e; }
  .rel-line { stroke: #8b949e; fill: none; stroke-width: 1.5; }
  .cardinality { font: bold 11px "Segoe UI", system-ui, -apple-system, sans-serif; fill: #57606a; }
  .rel-label { font: italic 10px "Segoe UI", system-ui, -apple-system, sans-serif; fill: #656d76; }
  .title { font: bold 16px "Segoe UI", system-ui, -apple-system, sans-serif; fill: #1f2328; }
  .subtitle { font: 11px "Segoe UI", system-ui, -apple-system, sans-serif; fill: #656d76; }
</style>
<defs>
  <filter id="shadow" x="-4%" y="-4%" width="108%" height="112%">
    <feDropShadow dx="0" dy="1" stdDeviation="3" flood-color="rgba(0,0,0,0.08)"/>
  </filter>
</defs>
<rect width="776" height="760" fill="white"/>
<text x="28" y="44" class="title">MedicalRecordService</text>
<text x="28" y="58" class="subtitle">Entity-Relationship Diagram</text>
<path d="M 158.0 394.0 C 158.0 484.0 368.0 484.0 368.0 574.0" class="rel-line"/>
<text x="168.3" y="416.0" text-anchor="middle" class="cardinality">1</text>
<text x="344.7" y="567.2" text-anchor="middle" class="cardinality">*</text>
<rect x="243.0" y="472.0" width="40" height="14" rx="3" fill="white" stroke="#d0d7de" stroke-width="0.5"/>
<text x="263.0" y="482.0" text-anchor="middle" class="rel-label">record</text>
<rect x="28.0" y="60" width="300.0" height="334.0" rx="6" fill="#ffffff" stroke="#d0d7de" stroke-width="1" filter="url(#shadow)"/>
<rect x="28.0" y="60" width="300.0" height="32" rx="6" fill="#24292f"/>
<rect x="28.0" y="86" width="300.0" height="6" fill="#24292f"/>
<text x="42.0" y="81.0" class="entity-name">MedicalRecord</text>
<text x="68.0" y="115.0" class="field-name">isConfidential</text>
<text x="314.0" y="115.0" text-anchor="end" class="field-type">Boolean</text>
<line x1="42.0" y1="122" x2="314.0" y2="122" stroke="#f0f0f0" stroke-width="0.5"/>
<text x="68.0" y="137.0" class="field-name">accessLevel?</text>
<text x="314.0" y="137.0" text-anchor="end" class="field-type">String</text>
<line x1="42.0" y1="144" x2="314.0" y2="144" stroke="#f0f0f0" stroke-width="0.5"/>
<text x="68.0" y="159.0" class="field-name">patientId</text>
<text x="314.0" y="159.0" text-anchor="end" class="field-type">UUID</text>
<line x1="42.0" y1="166" x2="314.0" y2="166" stroke="#f0f0f0" stroke-width="0.5"/>
<text x="68.0" y="181.0" class="field-name">appointmentId?</text>
<text x="314.0" y="181.0" text-anchor="end" class="field-type">UUID</text>
<line x1="42.0" y1="188" x2="314.0" y2="188" stroke="#f0f0f0" stroke-width="0.5"/>
<text x="68.0" y="203.0" class="field-name">providerId?</text>
<text x="314.0" y="203.0" text-anchor="end" class="field-type">UUID</text>
<line x1="42.0" y1="210" x2="314.0" y2="210" stroke="#f0f0f0" stroke-width="0.5"/>
<text x="68.0" y="225.0" class="field-name">providerName</text>
<text x="314.0" y="225.0" text-anchor="end" class="field-type">String(100)</text>
<line x1="42.0" y1="232" x2="314.0" y2="232" stroke="#f0f0f0" stroke-width="0.5"/>
<text x="68.0" y="247.0" class="field-name">type</text>
<text x="314.0" y="247.0" text-anchor="end" class="field-type">RecordType</text>
<line x1="42.0" y1="254" x2="314.0" y2="254" stroke="#f0f0f0" stroke-width="0.5"/>
<text x="68.0" y="269.0" class="field-name">status</text>
<text x="314.0" y="269.0" text-anchor="end" class="field-type">RecordStatus</text>
<line x1="42.0" y1="276" x2="314.0" y2="276" stroke="#f0f0f0" stroke-width="0.5"/>
<text x="68.0" y="291.0" class="field-name">title</text>
<text x="314.0" y="291.0" text-anchor="end" class="field-type">String(200)</text>
<line x1="42.0" y1="298" x2="314.0" y2="298" stroke="#f0f0f0" stroke-width="0.5"/>
<text x="68.0" y="313.0" class="field-name">content</text>
<text x="314.0" y="313.0" text-anchor="end" class="field-type">Text</text>
<line x1="42.0" y1="320" x2="314.0" y2="320" stroke="#f0f0f0" stroke-width="0.5"/>
<text x="68.0" y="335.0" class="field-name">recordDate</text>
<text x="314.0" y="335.0" text-anchor="end" class="field-type">DateTime</text>
<line x1="42.0" y1="342" x2="314.0" y2="342" stroke="#f0f0f0" stroke-width="0.5"/>
<text x="68.0" y="357.0" class="field-name">metadata?</text>
<text x="314.0" y="357.0" text-anchor="end" class="field-type">JSON</text>
<line x1="42.0" y1="364" x2="314.0" y2="364" stroke="#f0f0f0" stroke-width="0.5"/>
<text x="68.0" y="379.0" class="field-name">attachments</text>
<text x="314.0" y="379.0" text-anchor="end" class="field-type">JSON</text>
<rect x="448.0" y="60" width="300.0" height="444.0" rx="6" fill="#ffffff" stroke="#d0d7de" stroke-width="1" filter="url(#shadow)"/>
<rect x="448.0" y="60" width="300.0" height="32" rx="6" fill="#24292f"/>
<rect x="448.0" y="86" width="300.0" height="6" fill="#24292f"/>
<text x="462.0" y="81.0" class="entity-name">Prescription</text>
<text x="488.0" y="115.0" class="field-name">patientId</text>
<text x="734.0" y="115.0" text-anchor="end" class="field-type">UUID</text>
<line x1="462.0" y1="122" x2="734.0" y2="122" stroke="#f0f0f0" stroke-width="0.5"/>
<text x="488.0" y="137.0" class="field-name">appointmentId?</text>
<text x="734.0" y="137.0" text-anchor="end" class="field-type">UUID</text>
<line x1="462.0" y1="144" x2="734.0" y2="144" stroke="#f0f0f0" stroke-width="0.5"/>
<text x="488.0" y="159.0" class="field-name">providerId?</text>
<text x="734.0" y="159.0" text-anchor="end" class="field-type">UUID</text>
<line x1="462.0" y1="166" x2="734.0" y2="166" stroke="#f0f0f0" stroke-width="0.5"/>
<text x="488.0" y="181.0" class="field-name">prescribingDoctor</text>
<text x="734.0" y="181.0" text-anchor="end" class="field-type">String(100)</text>
<line x1="462.0" y1="188" x2="734.0" y2="188" stroke="#f0f0f0" stroke-width="0.5"/>
<text x="488.0" y="203.0" class="field-name">medicationName</text>
<text x="734.0" y="203.0" text-anchor="end" class="field-type">String(200)</text>
<line x1="462.0" y1="210" x2="734.0" y2="210" stroke="#f0f0f0" stroke-width="0.5"/>
<text x="488.0" y="225.0" class="field-name">dosage?</text>
<text x="734.0" y="225.0" text-anchor="end" class="field-type">String(100)</text>
<line x1="462.0" y1="232" x2="734.0" y2="232" stroke="#f0f0f0" stroke-width="0.5"/>
<text x="488.0" y="247.0" class="field-name">frequency?</text>
<text x="734.0" y="247.0" text-anchor="end" class="field-type">String(100)</text>
<line x1="462.0" y1="254" x2="734.0" y2="254" stroke="#f0f0f0" stroke-width="0.5"/>
<text x="488.0" y="269.0" class="field-name">route?</text>
<text x="734.0" y="269.0" text-anchor="end" class="field-type">String(100)</text>
<line x1="462.0" y1="276" x2="734.0" y2="276" stroke="#f0f0f0" stroke-width="0.5"/>
<text x="488.0" y="291.0" class="field-name">instructions?</text>
<text x="734.0" y="291.0" text-anchor="end" class="field-type">String(500)</text>
<line x1="462.0" y1="298" x2="734.0" y2="298" stroke="#f0f0f0" stroke-width="0.5"/>
<text x="488.0" y="313.0" class="field-name">quantity</text>
<text x="734.0" y="313.0" text-anchor="end" class="field-type">Integer</text>
<line x1="462.0" y1="320" x2="734.0" y2="320" stroke="#f0f0f0" stroke-width="0.5"/>
<text x="488.0" y="335.0" class="field-name">refillsAllowed</text>
<text x="734.0" y="335.0" text-anchor="end" class="field-type">Integer</text>
<line x1="462.0" y1="342" x2="734.0" y2="342" stroke="#f0f0f0" stroke-width="0.5"/>
<text x="488.0" y="357.0" class="field-name">refillsUsed</text>
<text x="734.0" y="357.0" text-anchor="end" class="field-type">Integer</text>
<line x1="462.0" y1="364" x2="734.0" y2="364" stroke="#f0f0f0" stroke-width="0.5"/>
<text x="488.0" y="379.0" class="field-name">startDate</text>
<text x="734.0" y="379.0" text-anchor="end" class="field-type">DateTime</text>
<line x1="462.0" y1="386" x2="734.0" y2="386" stroke="#f0f0f0" stroke-width="0.5"/>
<text x="488.0" y="401.0" class="field-name">endDate?</text>
<text x="734.0" y="401.0" text-anchor="end" class="field-type">DateTime</text>
<line x1="462.0" y1="408" x2="734.0" y2="408" stroke="#f0f0f0" stroke-width="0.5"/>
<text x="488.0" y="423.0" class="field-name">status</text>
<text x="734.0" y="423.0" text-anchor="end" class="field-type">PrescriptionStatus</text>
<line x1="462.0" y1="430" x2="734.0" y2="430" stroke="#f0f0f0" stroke-width="0.5"/>
<text x="488.0" y="445.0" class="field-name">pharmacyName?</text>
<text x="734.0" y="445.0" text-anchor="end" class="field-type">String</text>
<line x1="462.0" y1="452" x2="734.0" y2="452" stroke="#f0f0f0" stroke-width="0.5"/>
<text x="488.0" y="467.0" class="field-name">pharmacyPhone?</text>
<text x="734.0" y="467.0" text-anchor="end" class="field-type">Phone</text>
<line x1="462.0" y1="474" x2="734.0" y2="474" stroke="#f0f0f0" stroke-width="0.5"/>
<text x="488.0" y="489.0" class="field-name">discontinuationReason?</text>
<text x="734.0" y="489.0" text-anchor="end" class="field-type">String</text>
<rect x="238.0" y="574.0" width="300.0" height="158.0" rx="6" fill="#ffffff" stroke="#d0d7de" stroke-width="1" filter="url(#shadow)"/>
<rect x="238.0" y="574.0" width="300.0" height="32" rx="6" fill="#24292f"/>
<rect x="238.0" y="600.0" width="300.0" height="6" fill="#24292f"/>
<text x="252.0" y="595.0" class="entity-name">Attachment</text>
<text x="278.0" y="629.0" class="field-name">filename</text>
<text x="524.0" y="629.0" text-anchor="end" class="field-type">String(200)</text>
<line x1="252.0" y1="636.0" x2="524.0" y2="636.0" stroke="#f0f0f0" stroke-width="0.5"/>
<text x="278.0" y="651.0" class="field-name">contentType</text>
<text x="524.0" y="651.0" text-anchor="end" class="field-type">String(100)</text>
<line x1="252.0" y1="658.0" x2="524.0" y2="658.0" stroke="#f0f0f0" stroke-width="0.5"/>
<text x="278.0" y="673.0" class="field-name">fileSize</text>
<text x="524.0" y="673.0" text-anchor="end" class="field-type">Integer</text>
<line x1="252.0" y1="680.0" x2="524.0" y2="680.0" stroke="#f0f0f0" stroke-width="0.5"/>
<text x="278.0" y="695.0" class="field-name">storagePath</text>
<text x="524.0" y="695.0" text-anchor="end" class="field-type">String(500)</text>
<line x1="252.0" y1="702.0" x2="524.0" y2="702.0" stroke="#f0f0f0" stroke-width="0.5"/>
<text x="278.0" y="717.0" class="field-name">description?</text>
<text x="524.0" y="717.0" text-anchor="end" class="field-type">String</text>
</svg>