<svg xmlns="http://www.w3.org/2000/svg" viewBox="0 0 1196 658">
<style>
  .entity-name { font: bold 13px "Segoe UI", system-ui, -apple-system, sans-serif; fill: #ffffff; }
  .field-name { font: 11px "Segoe UI", system-ui, -apple-system, sans-serif; fill: #1f2328; }
  .field-type { font: 11px "Segoe UI", system-ui, -apple-system, sans-serif; fill: #656d76; }
  .pk-badge { font: bold 9px "Segoe UI", system-ui, -apple-system, sans-serif; fill: #cf222e; }
  .rel-line { stroke: #8b949e; fill: none; stroke-width: 1.5; }
  .cardinality { font: bold 11px "Segoe UI", system-ui, -apple-system, sans-serif; fill: #57606a; }
  .rel-label { font: italic 10px "Segoe UI", system-ui, -apple-system, sans-serif; fill: #656d76; }
  .title { font: bold 16px "Segoe UI", system-ui, -apple-system, sans-serif; fill: #1f2328; }
  .subtitle { font: 11px "Segoe UI", system-ui, -apple-system, sans-serif; fill: #656d76; }
</style>
<defs>
  <filter id="shadow" x="-4%" y="-4%" width="108%" height="112%">
    <feDropShadow dx="0" dy="1" stdDeviation="3" flood-color="rgba(0,0,0,0.08)"/>
  </filter>
</defs>
<rect width="1196" height="658" fill="white"/>
<text x="28" y="44" class="title">BookService</text>
<text x="28" y="58" class="subtitle">Entity-Relationship Diagram</text>
<path d="M 158.0 152.0 C 158.0 198.0 578.0 198.0 578.0 244.0" class="rel-line"/>
<text x="189.5" y="169.1" text-anchor="middle" class="cardinality">1</text>
<text x="542.3" y="246.4" text-anchor="middle" class="cardinality">*</text>
<rect x="348.0" y="186.0" width="40" height="14" rx="3" fill="white" stroke="#d0d7de" stroke-width="0.5"/>
<text x="368.0" y="196.0" text-anchor="middle" class="rel-label">books</text>
<path d="M 1008.0 152.0 C 1008.0 356.0 588.0 356.0 588.0 560.0" class="rel-line"/>
<text x="967.4" y="177.5" text-anchor="middle" class="cardinality">1</text>
<text x="614.6" y="520.2" text-anchor="middle" class="cardinality">*</text>
<rect x="778.0" y="344.0" width="40" height="14" rx="3" fill="white" stroke="#d0d7de" stroke-width="0.5"/>
<text x="798.0" y="354.0" text-anchor="middle" class="rel-label">bookTags</text>
<path d="M 598.0 490.0 C 598.0 525.0 598.0 525.0 598.0 560.0" class="rel-line"/>
<text x="588.0" y="495.6" text-anchor="middle" class="cardinality">1</text>
<text x="588.0" y="554.4" text-anchor="middle" class="cardinality">*</text>
<rect x="28.0" y="60" width="300.0" height="92.0" rx="6" fill="#ffffff" stroke="#d0d7de" stroke-width="1" filter="url(#shadow)"/>
<rect x="28.0" y="60" width="300.0" height="32" rx="6" fill="#24292f"/>
<rect x="28.0" y="86" width="300.0" height="6" fill="#24292f"/>
<text x="42.0" y="81.0" class="entity-name">Category</text>
<text x="68.0" y="115.0" class="field-name">name</text>
<text x="314.0" y="115.0" text-anchor="end" class="field-type">String(100)</text>
<line x1="42.0" y1="122" x2="314.0" y2="122" stroke="#f0f0f0" stroke-width="0.5"/>
<text x="68.0" y="137.0" class="field-name">description?</text>
<text x="314.0" y="137.0" text-anchor="end" class="field-type">String(500)</text>
<rect x="448.0" y="60" width="300.0" height="114.0" rx="6" fill="#ffffff" stroke="#d0d7de" stroke-width="1" filter="url(#shadow)"/>
<rect x="448.0" y="60" width="300.0" height="32" rx="6" fill="#24292f"/>
<rect x="448.0" y="86" width="300.0" height="6" fill="#24292f"/>
<text x="462.0" y="81.0" class="entity-name">User</text>
<text x="488.0" y="115.0" class="field-name">email</text>
<text x="734.0" y="115.0" text-anchor="end" class="field-type">String(255)</text>
<line x1="462.0" y1="122" x2="734.0" y2="122" stroke="#f0f0f0" stroke-width="0.5"/>
<text x="488.0" y="137.0" class="field-name">passwordHash</text>
<text x="734.0" y="137.0" text-anchor="end" class="field-type">Password</text>
<line x1="462.0" y1="144" x2="734.0" y2="144" stroke="#f0f0f0" stroke-width="0.5"/>
<text x="488.0" y="159.0" class="field-name">role</text>
<text x="734.0" y="159.0" text-anchor="end" class="field-type">UserRole</text>
<rect x="868.0" y="60" width="300.0" height="92.0" rx="6" fill="#ffffff" stroke="#d0d7de" stroke-width="1" filter="url(#shadow)"/>
<rect x="868.0" y="60" width="300.0" height="32" rx="6" fill="#24292f"/>
<rect x="868.0" y="86" width="300.0" height="6" fill="#24292f"/>
<text x="882.0" y="81.0" class="entity-name">Tag</text>
<text x="908.0" y="115.0" class="field-name">name</text>
<text x="1154.0" y="115.0" text-anchor="end" class="field-type">String(50)</text>
<line x1="882.0" y1="122" x2="1154.0" y2="122" stroke="#f0f0f0" stroke-width="0.5"/>
<text x="908.0" y="137.0" class="field-name">description?</text>
<text x="1154.0" y="137.0" text-anchor="end" class="field-type">String(200)</text>
<rect x="448.0" y="560.0" width="300.0" height="70.0" rx="6" fill="#ffffff" stroke="#d0d7de" stroke-width="1" filter="url(#shadow)"/>
<rect x="448.0" y="560.0" width="300.0" height="32" rx="6" fill="#24292f"/>
<rect x="448.0" y="586.0" width="300.0" height="6" fill="#24292f"/>
<text x="462.0" y="581.0" class="entity-name">BookTag</text>
<rect x="448.0" y="244.0" width="300.0" height="246.0" rx="6" fill="#ffffff" stroke="#d0d7de" stroke-width="1" filter="url(#shadow)"/>
<rect x="448.0" y="244.0" width="300.0" height="32" rx="6" fill="#24292f"/>
<rect x="448.0" y="270.0" width="300.0" height="6" fill="#24292f"/>
<text x="462.0" y="265.0" class="entity-name">Book</text>
<text x="488.0" y="299.0" class="field-name">title</text>
<text x="734.0" y="299.0" text-anchor="end" class="field-type">String(200)</text>
<line x1="462.0" y1="306.0" x2="734.0" y2="306.0" stroke="#f0f0f0" stroke-width="0.5"/>
<text x="488.0" y="321.0" class="field-name">isbn</text>
<text x="734.0" y="321.0" text-anchor="end" class="field-type">String(10, 13)</text>
<line x1="462.0" y1="328.0" x2="734.0" y2="328.0" stroke="#f0f0f0" stroke-width="0.5"/>
<text x="488.0" y="343.0" class="field-name">author</text>
<text x="734.0" y="343.0" text-anchor="end" class="field-type">String(100)</text>
<line x1="462.0" y1="350.0" x2="734.0" y2="350.0" stroke="#f0f0f0" stroke-width="0.5"/>
<text x="488.0" y="365.0" class="field-name">publicationYear</text>
<text x="734.0" y="365.0" text-anchor="end" class="field-type">Integer</text>
<line x1="462.0" y1="372.0" x2="734.0" y2="372.0" stroke="#f0f0f0" stroke-width="0.5"/>
<text x="488.0" y="387.0" class="field-name">status</text>
<text x="734.0" y="387.0" text-anchor="end" class="field-type">BookStatus</text>
<line x1="462.0" y1="394.0" x2="734.0" y2="394.0" stroke="#f0f0f0" stroke-width="0.5"/>
<text x="488.0" y="409.0" class="field-name">format</text>
<text x="734.0" y="409.0" text-anchor="end" class="field-type">BookFormat</text>
<line x1="462.0" y1="416.0" x2="734.0" y2="416.0" stroke="#f0f0f0" stroke-width="0.5"/>
<text x="488.0" y="431.0" class="field-name">catalogNumber?</text>
<text x="734.0" y="431.0" text-anchor="end" class="field-type">String(50)</text>
<line x1="462.0" y1="438.0" x2="734.0" y2="438.0" stroke="#f0f0f0" stroke-width="0.5"/>
<text x="488.0" y="453.0" class="field-name">keywords</text>
<text x="734.0" y="453.0" text-anchor="end" class="field-type">Array&lt;String&gt;</text>
<line x1="462.0" y1="460.0" x2="734.0" y2="460.0" stroke="#f0f0f0" stroke-width="0.5"/>
<text x="488.0" y="475.0" class="field-name">rating</text>
<text x="734.0" y="475.0" text-anchor="end" class="field-type">Decimal(3, 2)</text>
</svg>