<svg xmlns="http://www.w3.org/2000/svg" viewBox="0 0 874 250">
<style>
  .abstract-name { font: italic 11px 'Segoe UI', system-ui, -apple-system, sans-serif; fill: #57606a; }
  .concrete-name { font: bold 11px 'Segoe UI', system-ui, -apple-system, sans-serif; fill: #ffffff; }
  .trait-name { font: bold 10px 'Segoe UI', system-ui, -apple-system, sans-serif; fill: #7d4e00; }
</style>
<rect width="874" height="250" fill="white"/>
<text x="28" y="44" style="font: bold 16px 'Segoe UI', system-ui, -apple-system, sans-serif; fill: #1f2328;">Inheritance — ProductService</text>
<path d="M 322.0 108.0 C 220.0 108.0 220.0 158.0 118.0 158.0" stroke="#57606a" fill="none" stroke-width="1.5"/>
<path d="M 322.0 108.0 C 322.0 133.0 322.0 133.0 322.0 158.0" stroke="#57606a" fill="none" stroke-width="1.5"/>
<path d="M 322.0 108.0 C 424.0 108.0 424.0 158.0 526.0 158.0" stroke="#57606a" fill="none" stroke-width="1.5"/>
<path d="M 412.0 174.0 C 554.0 174.0 554.0 170.0 696.0 170.0" stroke="#d4a72c" fill="none" stroke-width="0.8" stroke-dasharray="4,3"/>
<path d="M 412.0 174.0 C 554.0 174.0 554.0 90.0 696.0 90.0" stroke="#d4a72c" fill="none" stroke-width="0.8" stroke-dasharray="4,3"/>
<path d="M 412.0 174.0 C 554.0 174.0 554.0 130.0 696.0 130.0" stroke="#d4a72c" fill="none" stroke-width="0.8" stroke-dasharray="4,3"/>
<rect x="28.0" y="158" width="180" height="32" rx="6" fill="#24292f" stroke="#d0d7de" stroke-width="1"/>
<text x="118.0" y="178.0" text-anchor="middle" class="concrete-name">Category</text>
<rect x="232.0" y="158" width="180" height="32" rx="6" fill="#24292f" stroke="#d0d7de" stroke-width="1"/>
<text x="322.0" y="178.0" text-anchor="middle" class="concrete-name">Product</text>
<rect x="436.0" y="158" width="180" height="32" rx="6" fill="#24292f" stroke="#d0d7de" stroke-width="1"/>
<text x="526.0" y="178.0" text-anchor="middle" class="concrete-name">InventoryReservation</text>
<rect x="232.0" y="76" width="180" height="32" rx="6" fill="#f6f8fa" stroke="#8b949e" stroke-width="1" stroke-dasharray="4,3"/>
<text x="322.0" y="96.0" text-anchor="middle" class="abstract-name">BaseEntity</text>
<rect x="696" y="76" width="150" height="28" rx="14" fill="#fff8c5" stroke="#d4a72c" stroke-width="1"/>
<text x="771.0" y="94.0" text-anchor="middle" class="trait-name">Discountable</text>
<rect x="696" y="116" width="150" height="28" rx="14" fill="#fff8c5" stroke="#d4a72c" stroke-width="1"/>
<text x="771.0" y="134.0" text-anchor="middle" class="trait-name">Inventoried</text>
<rect x="696" y="156" width="150" height="28" rx="14" fill="#fff8c5" stroke="#d4a72c" stroke-width="1"/>
<text x="771.0" y="174.0" text-anchor="middle" class="trait-name">Sluggable</text>
</svg>