<svg xmlns="http://www.w3.org/2000/svg" viewBox="0 0 1616 1010">
<style>
  .entity-name { font: bold 13px "Segoe UI", system-ui, -apple-system, sans-serif; fill: #ffffff; }
  .field-name { font: 11px "Segoe UI", system-ui, -apple-system, sans-serif; fill: #1f2328; }
  .field-type { font: 11px "Segoe UI", system-ui, -apple-system, sans-serif; fill: #656d76; }
  .pk-badge { font: bold 9px "Segoe UI", system-ui, -apple-system, sans-serif; fill: #cf222e; }
  .rel-line { stroke: #8b949e; fill: none; stroke-width: 1.5; }
  .cardinality { font: bold 11px "Segoe UI", system-ui, -apple-system, sans-serif; fill: #57606a; }
  .rel-label { font: italic 10px "Segoe UI", system-ui, -apple-system, sans-serif; fill: #656d76; }
  .title { font: bold 16px "Segoe UI", system-ui, -apple-system, sans-serif; fill: #1f2328; }
  .subtitle { font: 11px "Segoe UI", system-ui, -apple-system, sans-serif; fill: #656d76; }
</style>
<defs>
  <filter id="shadow" x="-4%" y="-4%" width="108%" height="112%">
    <feDropShadow dx="0" dy="1" stdDeviation="3" flood-color="rgba(0,0,0,0.08)"/>
  </filter>
</defs>
<rect width="1616" height="1010" fill="white"/>
<text x="28" y="44" class="title">BookService</text>
<text x="28" y="58" class="subtitle">Entity-Relationship Diagram</text>
<path d="M 158.0 152.0 C 158.0 220.0 998.0 220.0 998.0 288.0" class="rel-line"/>
<text x="223.6" y="172.8" text-anchor="middle" class="cardinality">1</text>
<text x="929.2" y="287.0" text-anchor="middle" class="cardinality">*</text>
<rect x="558.0" y="208.0" width="40" height="14" rx="3" fill="white" stroke="#d0d7de" stroke-width="0.5"/>
<text x="578.0" y="218.0" text-anchor="middle" class="rel-label">books</text>
<path d="M 1008.0 152.0 C 1008.0 477.0 378.0 477.0 378.0 802.0" class="rel-line"/>
<text x="950.4" y="197.0" text-anchor="middle" class="cardinality">1</text>
<text x="421.2" y="743.0" text-anchor="middle" class="cardinality">*</text>
<rect x="673.0" y="465.0" width="40" height="14" rx="3" fill="white" stroke="#d0d7de" stroke-width="0.5"/>
<text x="693.0" y="475.0" text-anchor="middle" class="rel-label">bookTags</text>
<path d="M 1018.0 732.0 C 1018.0 767.0 388.0 767.0 388.0 802.0" class="rel-line"/>
<text x="966.5" y="727.7" text-anchor="middle" class="cardinality">1</text>
<text x="437.3" y="786.5" text-anchor="middle" class="cardinality">*</text>
<path d="M 1448.0 218.0 C 1448.0 253.0 608.0 253.0 608.0 288.0" class="rel-line"/>
<text x="1380.0" y="213.6" text-anchor="middle" class="cardinality">1</text>
<text x="674.4" y="272.4" text-anchor="middle" class="cardinality">*</text>
<rect x="1008.0" y="241.0" width="40" height="14" rx="3" fill="white" stroke="#d0d7de" stroke-width="0.5"/>
<text x="1028.0" y="251.0" text-anchor="middle" class="rel-label">shelves</text>
<path d="M 1458.0 218.0 C 1458.0 253.0 1038.0 253.0 1038.0 288.0" class="rel-line"/>
<text x="1422.8" y="213.7" text-anchor="middle" class="cardinality">1</text>
<text x="1070.0" y="272.5" text-anchor="middle" class="cardinality">*</text>
<path d="M 998.0 732.0 C 998.0 767.0 788.0 767.0 788.0 802.0" class="rel-line"/>
<text x="978.0" y="728.1" text-anchor="middle" class="cardinality">1</text>
<text x="801.6" y="786.9" text-anchor="middle" class="cardinality">*</text>
<rect x="873.0" y="755.0" width="40" height="14" rx="3" fill="white" stroke="#d0d7de" stroke-width="0.5"/>
<text x="893.0" y="765.0" text-anchor="middle" class="rel-label">reviews</text>
<path d="M 1008.0 732.0 C 1008.0 767.0 1218.0 767.0 1218.0 802.0" class="rel-line"/>
<text x="1021.6" y="747.1" text-anchor="middle" class="cardinality">1</text>
<text x="1198.0" y="805.9" text-anchor="middle" class="cardinality">*</text>
<rect x="28.0" y="60" width="300.0" height="92.0" rx="6" fill="#ffffff" stroke="#d0d7de" stroke-width="1" filter="url(#shadow)"/>
<rect x="28.0" y="60" width="300.0" height="32" rx="6" fill="#24292f"/>
<rect x="28.0" y="86" width="300.0" height="6" fill="#24292f"/>
<text x="42.0" y="81.0" class="entity-name">Category</text>
<text x="68.0" y="115.0" class="field-name">name</text>
<text x="314.0" y="115.0" text-anchor="end" class="field-type">String(100)</text>
<line x1="42.0" y1="122" x2="314.0" y2="122" stroke="#f0f0f0" stroke-width="0.5"/>
<text x="68.0" y="137.0" class="field-name">description?</text>
<text x="314.0" y="137.0" text-anchor="end" class="field-type">String(500)</text>
<rect x="448.0" y="60" width="300.0" height="114.0" rx="6" fill="#ffffff" stroke="#d0d7de" stroke-width="1" filter="url(#shadow)"/>
<rect x="448.0" y="60" width="300.0" height="32" rx="6" fill="#24292f"/>
<rect x="448.0" y="86" width="300.0" height="6" fill="#24292f"/>
<text x="462.0" y="81.0" class="entity-name">User</text>
<text x="488.0" y="115.0" class="field-name">email</text>
<text x="734.0" y="115.0" text-anchor="end" class="field-type">String(255)</text>
<line x1="462.0" y1="122" x2="734.0" y2="122" stroke="#f0f0f0" stroke-width="0.5"/>
<text x="488.0" y="137.0" class="field-name">passwordHash</text>
<text x="734.0" y="137.0" text-anchor="end" class="field-type">Password</text>
<line x1="462.0" y1="144" x2="734.0" y2="144" stroke="#f0f0f0" stroke-width="0.5"/>
<text x="488.0" y="159.0" class="field-name">role</text>
<text x="734.0" y="159.0" text-anchor="end" class="field-type">UserRole</text>
<rect x="868.0" y="60" width="300.0" height="92.0" rx="6" fill="#ffffff" stroke="#d0d7de" stroke-width="1" filter="url(#shadow)"/>
<rect x="868.0" y="60" width="300.0" height="32" rx="6" fill="#24292f"/>
<rect x="868.0" y="86" width="300.0" height="6" fill="#24292f"/>
<text x="882.0" y="81.0" class="entity-name">Tag</text>
<text x="908.0" y="115.0" class="field-name">name</text>
<text x="1154.0" y="115.0" text-anchor="end" class="field-type">String(50)</text>
<line x1="882.0" y1="122" x2="1154.0" y2="122" stroke="#f0f0f0" stroke-width="0.5"/>
<text x="908.0" y="137.0" class="field-name">description?</text>
<text x="1154.0" y="137.0" text-anchor="end" class="field-type">String(200)</text>
<rect x="238.0" y="802.0" width="300.0" height="70.0" rx="6" fill="#ffffff" stroke="#d0d7de" stroke-width="1" filter="url(#shadow)"/>
<rect x="238.0" y="802.0" width="300.0" height="32" rx="6" fill="#24292f"/>
<rect x="238.0" y="828.0" width="300.0" height="6" fill="#24292f"/>
<text x="252.0" y="823.0" class="entity-name">BookTag</text>
<rect x="1288.0" y="60" width="300.0" height="158.0" rx="6" fill="#ffffff" stroke="#d0d7de" stroke-width="1" filter="url(#shadow)"/>
<rect x="1288.0" y="60" width="300.0" height="32" rx="6" fill="#24292f"/>
<rect x="1288.0" y="86" width="300.0" height="6" fill="#24292f"/>
<text x="1302.0" y="81.0" class="entity-name">Branch</text>
<text x="1328.0" y="115.0" class="field-name">name</text>
<text x="1574.0" y="115.0" text-anchor="end" class="field-type">String(200)</text>
<line x1="1302.0" y1="122" x2="1574.0" y2="122" stroke="#f0f0f0" stroke-width="0.5"/>
<text x="1328.0" y="137.0" class="field-name">latitude</text>
<text x="1574.0" y="137.0" text-anchor="end" class="field-type">Latitude</text>
<line x1="1302.0" y1="144" x2="1574.0" y2="144" stroke="#f0f0f0" stroke-width="0.5"/>
<text x="1328.0" y="159.0" class="field-name">longitude</text>
<text x="1574.0" y="159.0" text-anchor="end" class="field-type">Longitude</text>
<line x1="1302.0" y1="166" x2="1574.0" y2="166" stroke="#f0f0f0" stroke-width="0.5"/>
<text x="1328.0" y="181.0" class="field-name">country</text>
<text x="1574.0" y="181.0" text-anchor="end" class="field-type">CountryCode</text>
<line x1="1302.0" y1="188" x2="1574.0" y2="188" stroke="#f0f0f0" stroke-width="0.5"/>
<text x="1328.0" y="203.0" class="field-name">postalCode?</text>
<text x="1574.0" y="203.0" text-anchor="end" class="field-type">PostalCode</text>
<rect x="448.0" y="288.0" width="300.0" height="114.0" rx="6" fill="#ffffff" stroke="#d0d7de" stroke-width="1" filter="url(#shadow)"/>
<rect x="448.0" y="288.0" width="300.0" height="32" rx="6" fill="#24292f"/>
<rect x="448.0" y="314.0" width="300.0" height="6" fill="#24292f"/>
<text x="462.0" y="309.0" class="entity-name">ShelfLocation</text>
<text x="488.0" y="343.0" class="field-name">aisle</text>
<text x="734.0" y="343.0" text-anchor="end" class="field-type">String(50)</text>
<line x1="462.0" y1="350.0" x2="734.0" y2="350.0" stroke="#f0f0f0" stroke-width="0.5"/>
<text x="488.0" y="365.0" class="field-name">shelf</text>
<text x="734.0" y="365.0" text-anchor="end" class="field-type">String(10)</text>
<line x1="462.0" y1="372.0" x2="734.0" y2="372.0" stroke="#f0f0f0" stroke-width="0.5"/>
<text x="488.0" y="387.0" class="field-name">capacity</text>
<text x="734.0" y="387.0" text-anchor="end" class="field-type">Integer</text>
<rect x="868.0" y="288.0" width="300.0" height="444.0" rx="6" fill="#ffffff" stroke="#d0d7de" stroke-width="1" filter="url(#shadow)"/>
<rect x="868.0" y="288.0" width="300.0" height="32" rx="6" fill="#24292f"/>
<rect x="868.0" y="314.0" width="300.0" height="6" fill="#24292f"/>
<text x="882.0" y="309.0" class="entity-name">Book</text>
<text x="908.0" y="343.0" class="field-name">createdBy</text>
<text x="1154.0" y="343.0" text-anchor="end" class="field-type">UUID</text>
<line x1="882.0" y1="350.0" x2="1154.0" y2="350.0" stroke="#f0f0f0" stroke-width="0.5"/>
<text x="908.0" y="365.0" class="field-name">updatedBy?</text>
<text x="1154.0" y="365.0" text-anchor="end" class="field-type">UUID</text>
<line x1="882.0" y1="372.0" x2="1154.0" y2="372.0" stroke="#f0f0f0" stroke-width="0.5"/>
<text x="908.0" y="387.0" class="field-name">deletedAt?</text>
<text x="1154.0" y="387.0" text-anchor="end" class="field-type">DateTime</text>
<line x1="882.0" y1="394.0" x2="1154.0" y2="394.0" stroke="#f0f0f0" stroke-width="0.5"/>
<text x="908.0" y="409.0" class="field-name">deletedBy?</text>
<text x="1154.0" y="409.0" text-anchor="end" class="field-type">UUID</text>
<line x1="882.0" y1="416.0" x2="1154.0" y2="416.0" stroke="#f0f0f0" stroke-width="0.5"/>
<text x="908.0" y="431.0" class="field-name">title</text>
<text x="1154.0" y="431.0" text-anchor="end" class="field-type">String(200)</text>
<line x1="882.0" y1="438.0" x2="1154.0" y2="438.0" stroke="#f0f0f0" stroke-width="0.5"/>
<text x="908.0" y="453.0" class="field-name">isbn</text>
<text x="1154.0" y="453.0" text-anchor="end" class="field-type">String(10, 13)</text>
<line x1="882.0" y1="460.0" x2="1154.0" y2="460.0" stroke="#f0f0f0" stroke-width="0.5"/>
<text x="908.0" y="475.0" class="field-name">author</text>
<text x="1154.0" y="475.0" text-anchor="end" class="field-type">String(100)</text>
<line x1="882.0" y1="482.0" x2="1154.0" y2="482.0" stroke="#f0f0f0" stroke-width="0.5"/>
<text x="908.0" y="497.0" class="field-name">publicationYear</text>
<text x="1154.0" y="497.0" text-anchor="end" class="field-type">Integer</text>
<line x1="882.0" y1="504.0" x2="1154.0" y2="504.0" stroke="#f0f0f0" stroke-width="0.5"/>
<text x="908.0" y="519.0" class="field-name">status</text>
<text x="1154.0" y="519.0" text-anchor="end" class="field-type">BookStatus</text>
<line x1="882.0" y1="526.0" x2="1154.0" y2="526.0" stroke="#f0f0f0" stroke-width="0.5"/>
<text x="908.0" y="541.0" class="field-name">format</text>
<text x="1154.0" y="541.0" text-anchor="end" class="field-type">BookFormat</text>
<line x1="882.0" y1="548.0" x2="1154.0" y2="548.0" stroke="#f0f0f0" stroke-width="0.5"/>
<text x="908.0" y="563.0" class="field-name">catalogNumber?</text>
<text x="1154.0" y="563.0" text-anchor="end" class="field-type">String(50)</text>
<line x1="882.0" y1="570.0" x2="1154.0" y2="570.0" stroke="#f0f0f0" stroke-width="0.5"/>
<text x="908.0" y="585.0" class="field-name">keywords</text>
<text x="1154.0" y="585.0" text-anchor="end" class="field-type">Array&lt;String&gt;</text>
<line x1="882.0" y1="592.0" x2="1154.0" y2="592.0" stroke="#f0f0f0" stroke-width="0.5"/>
<text x="908.0" y="607.0" class="field-name">rating</text>
<text x="1154.0" y="607.0" text-anchor="end" class="field-type">Decimal(3, 2)</text>
<line x1="882.0" y1="614.0" x2="1154.0" y2="614.0" stroke="#f0f0f0" stroke-width="0.5"/>
<text x="908.0" y="629.0" class="field-name">price</text>
<text x="1154.0" y="629.0" text-anchor="end" class="field-type">Decimal(10, 2)</text>
<line x1="882.0" y1="636.0" x2="1154.0" y2="636.0" stroke="#f0f0f0" stroke-width="0.5"/>
<text x="908.0" y="651.0" class="field-name">metadata</text>
<text x="1154.0" y="651.0" text-anchor="end" class="field-type">Map&lt;String, String&gt;</text>
<line x1="882.0" y1="658.0" x2="1154.0" y2="658.0" stroke="#f0f0f0" stroke-width="0.5"/>
<text x="908.0" y="673.0" class="field-name">tags</text>
<text x="1154.0" y="673.0" text-anchor="end" class="field-type">Set&lt;String&gt;</text>
<line x1="882.0" y1="680.0" x2="1154.0" y2="680.0" stroke="#f0f0f0" stroke-width="0.5"/>
<text x="908.0" y="695.0" class="field-name">condition</text>
<text x="1154.0" y="695.0" text-anchor="end" class="field-type">BookCondition</text>
<line x1="882.0" y1="702.0" x2="1154.0" y2="702.0" stroke="#f0f0f0" stroke-width="0.5"/>
<text x="908.0" y="717.0" class="field-name">renewalCount</text>
<text x="1154.0" y="717.0" text-anchor="end" class="field-type">Integer</text>
<rect x="658.0" y="802.0" width="300.0" height="92.0" rx="6" fill="#ffffff" stroke="#d0d7de" stroke-width="1" filter="url(#shadow)"/>
<rect x="658.0" y="802.0" width="300.0" height="32" rx="6" fill="#24292f"/>
<rect x="658.0" y="828.0" width="300.0" height="6" fill="#24292f"/>
<text x="672.0" y="823.0" class="entity-name">Review</text>
<text x="698.0" y="857.0" class="field-name">rating</text>
<text x="944.0" y="857.0" text-anchor="end" class="field-type">Integer</text>
<line x1="672.0" y1="864.0" x2="944.0" y2="864.0" stroke="#f0f0f0" stroke-width="0.5"/>
<text x="698.0" y="879.0" class="field-name">comment?</text>
<text x="944.0" y="879.0" text-anchor="end" class="field-type">Text</text>
<rect x="1078.0" y="802.0" width="300.0" height="180.0" rx="6" fill="#ffffff" stroke="#d0d7de" stroke-width="1" filter="url(#shadow)"/>
<rect x="1078.0" y="802.0" width="300.0" height="32" rx="6" fill="#24292f"/>
<rect x="1078.0" y="828.0" width="300.0" height="6" fill="#24292f"/>
<text x="1092.0" y="823.0" class="entity-name">Checkout</text>
<text x="1118.0" y="857.0" class="field-name">createdBy</text>
<text x="1364.0" y="857.0" text-anchor="end" class="field-type">UUID</text>
<line x1="1092.0" y1="864.0" x2="1364.0" y2="864.0" stroke="#f0f0f0" stroke-width="0.5"/>
<text x="1118.0" y="879.0" class="field-name">updatedBy?</text>
<text x="1364.0" y="879.0" text-anchor="end" class="field-type">UUID</text>
<line x1="1092.0" y1="886.0" x2="1364.0" y2="886.0" stroke="#f0f0f0" stroke-width="0.5"/>
<text x="1118.0" y="901.0" class="field-name">checkoutDate</text>
<text x="1364.0" y="901.0" text-anchor="end" class="field-type">DateTime</text>
<line x1="1092.0" y1="908.0" x2="1364.0" y2="908.0" stroke="#f0f0f0" stroke-width="0.5"/>
<text x="1118.0" y="923.0" class="field-name">dueDate</text>
<text x="1364.0" y="923.0" text-anchor="end" class="field-type">DateTime</text>
<line x1="1092.0" y1="930.0" x2="1364.0" y2="930.0" stroke="#f0f0f0" stroke-width="0.5"/>
<text x="1118.0" y="945.0" class="field-name">returnDate?</text>
<text x="1364.0" y="945.0" text-anchor="end" class="field-type">DateTime</text>
<line x1="1092.0" y1="952.0" x2="1364.0" y2="952.0" stroke="#f0f0f0" stroke-width="0.5"/>
<text x="1118.0" y="967.0" class="field-name">renewals</text>
<text x="1364.0" y="967.0" text-anchor="end" class="field-type">Integer</text>
</svg>