<svg xmlns="http://www.w3.org/2000/svg" viewBox="0 0 776 694">
<style>
  .entity-name { font: bold 13px "Segoe UI", system-ui, -apple-system, sans-serif; fill: #ffffff; }
  .field-name { font: 11px "Segoe UI", system-ui, -apple-system, sans-serif; fill: #1f2328; }
  .field-type { font: 11px "Segoe UI", system-ui, -apple-system, sans-serif; fill: #656d76; }
  .pk-badge { font: bold 9px "Segoe UI", system-ui, -apple-system, sans-serif; fill: #cf222e; }
  .rel-line { stroke: #8b949e; fill: none; stroke-width: 1.5; }
  .cardinality { font: bold 11px "Segoe UI", system-ui, -apple-system, sans-serif; fill: #57606a; }
  .rel-label { font: italic 10px "Segoe UI", system-ui, -apple-system, sans-serif; fill: #656d76; }
  .title { font: bold 16px "Segoe UI", system-ui, -apple-system, sans-serif; fill: #1f2328; }
  .subtitle { font: 11px "Segoe UI", system-ui, -apple-system, sans-serif; fill: #656d76; }
</style>
<defs>
  <filter id="shadow" x="-4%" y="-4%" width="108%" height="112%">
    <feDropShadow dx="0" dy="1" stdDeviation="3" flood-color="rgba(0,0,0,0.08)"/>
  </filter>
</defs>
<rect width="776" height="694" fill="white"/>
<text x="28" y="44" class="title">UserService</text>
<text x="28" y="58" class="subtitle">Entity-Relationship Diagram</text>
<path d="M 158.0 416.0 C 158.0 451.0 368.0 451.0 368.0 486.0" class="rel-line"/>
<text x="171.6" y="431.1" text-anchor="middle" class="cardinality">1</text>
<text x="348.0" y="489.9" text-anchor="middle" class="cardinality">*</text>
<rect x="243.0" y="439.0" width="40" height="14" rx="3" fill="white" stroke="#d0d7de" stroke-width="0.5"/>
<text x="263.0" y="449.0" text-anchor="middle" class="rel-label">sessions</text>
<path d="M 328.0 228.0 C 388.0 228.0 388.0 129.0 448.0 129.0" class="rel-line"/>
<text x="344.0" y="227.8" text-anchor="middle" class="cardinality">1</text>
<text x="444.8" y="144.6" text-anchor="middle" class="cardinality">1</text>
<rect x="368.0" y="166.5" width="40" height="14" rx="3" fill="white" stroke="#d0d7de" stroke-width="0.5"/>
<text x="388.0" y="176.5" text-anchor="middle" class="rel-label">preferences</text>
<rect x="28.0" y="60" width="300.0" height="356.0" rx="6" fill="#ffffff" stroke="#d0d7de" stroke-width="1" filter="url(#shadow)"/>
<rect x="28.0" y="60" width="300.0" height="32" rx="6" fill="#24292f"/>
<rect x="28.0" y="86" width="300.0" height="6" fill="#24292f"/>
<text x="42.0" y="81.0" class="entity-name">User</text>
<text x="68.0" y="115.0" class="field-name">email</text>
<text x="314.0" y="115.0" text-anchor="end" class="field-type">Email</text>
<line x1="42.0" y1="122" x2="314.0" y2="122" stroke="#f0f0f0" stroke-width="0.5"/>
<text x="68.0" y="137.0" class="field-name">passwordHash</text>
<text x="314.0" y="137.0" text-anchor="end" class="field-type">Password</text>
<line x1="42.0" y1="144" x2="314.0" y2="144" stroke="#f0f0f0" stroke-width="0.5"/>
<text x="68.0" y="159.0" class="field-name">firstName</text>
<text x="314.0" y="159.0" text-anchor="end" class="field-type">String(100)</text>
<line x1="42.0" y1="166" x2="314.0" y2="166" stroke="#f0f0f0" stroke-width="0.5"/>
<text x="68.0" y="181.0" class="field-name">lastName</text>
<text x="314.0" y="181.0" text-anchor="end" class="field-type">String(100)</text>
<line x1="42.0" y1="188" x2="314.0" y2="188" stroke="#f0f0f0" stroke-width="0.5"/>
<text x="68.0" y="203.0" class="field-name">phoneNumber?</text>
<text x="314.0" y="203.0" text-anchor="end" class="field-type">Phone</text>
<line x1="42.0" y1="210" x2="314.0" y2="210" stroke="#f0f0f0" stroke-width="0.5"/>
<text x="68.0" y="225.0" class="field-name">role</text>
<text x="314.0" y="225.0" text-anchor="end" class="field-type">UserRole</text>
<line x1="42.0" y1="232" x2="314.0" y2="232" stroke="#f0f0f0" stroke-width="0.5"/>
<text x="68.0" y="247.0" class="field-name">status</text>
<text x="314.0" y="247.0" text-anchor="end" class="field-type">UserStatus</text>
<line x1="42.0" y1="254" x2="314.0" y2="254" stroke="#f0f0f0" stroke-width="0.5"/>
<text x="68.0" y="269.0" class="field-name">lastLoginAt?</text>
<text x="314.0" y="269.0" text-anchor="end" class="field-type">DateTime</text>
<line x1="42.0" y1="276" x2="314.0" y2="276" stroke="#f0f0f0" stroke-width="0.5"/>
<text x="68.0" y="291.0" class="field-name">emailVerifiedAt?</text>
<text x="314.0" y="291.0" text-anchor="end" class="field-type">DateTime</text>
<line x1="42.0" y1="298" x2="314.0" y2="298" stroke="#f0f0f0" stroke-width="0.5"/>
<text x="68.0" y="313.0" class="field-name">emailVerificationToken?</text>
<text x="314.0" y="313.0" text-anchor="end" class="field-type">String</text>
<line x1="42.0" y1="320" x2="314.0" y2="320" stroke="#f0f0f0" stroke-width="0.5"/>
<text x="68.0" y="335.0" class="field-name">passwordResetToken?</text>
<text x="314.0" y="335.0" text-anchor="end" class="field-type">String</text>
<line x1="42.0" y1="342" x2="314.0" y2="342" stroke="#f0f0f0" stroke-width="0.5"/>
<text x="68.0" y="357.0" class="field-name">passwordResetExpiry?</text>
<text x="314.0" y="357.0" text-anchor="end" class="field-type">DateTime</text>
<line x1="42.0" y1="364" x2="314.0" y2="364" stroke="#f0f0f0" stroke-width="0.5"/>
<text x="68.0" y="379.0" class="field-name">shippingAddress?</text>
<text x="314.0" y="379.0" text-anchor="end" class="field-type">Address</text>
<line x1="42.0" y1="386" x2="314.0" y2="386" stroke="#f0f0f0" stroke-width="0.5"/>
<text x="68.0" y="401.0" class="field-name">billingAddress?</text>
<text x="314.0" y="401.0" text-anchor="end" class="field-type">Address</text>
<rect x="238.0" y="486.0" width="300.0" height="180.0" rx="6" fill="#ffffff" stroke="#d0d7de" stroke-width="1" filter="url(#shadow)"/>
<rect x="238.0" y="486.0" width="300.0" height="32" rx="6" fill="#24292f"/>
<rect x="238.0" y="512.0" width="300.0" height="6" fill="#24292f"/>
<text x="252.0" y="507.0" class="entity-name">UserSession</text>
<text x="278.0" y="541.0" class="field-name">token</text>
<text x="524.0" y="541.0" text-anchor="end" class="field-type">String(255)</text>
<line x1="252.0" y1="548.0" x2="524.0" y2="548.0" stroke="#f0f0f0" stroke-width="0.5"/>
<text x="278.0" y="563.0" class="field-name">deviceName?</text>
<text x="524.0" y="563.0" text-anchor="end" class="field-type">String(500)</text>
<line x1="252.0" y1="570.0" x2="524.0" y2="570.0" stroke="#f0f0f0" stroke-width="0.5"/>
<text x="278.0" y="585.0" class="field-name">ipAddress?</text>
<text x="524.0" y="585.0" text-anchor="end" class="field-type">IPAddress</text>
<line x1="252.0" y1="592.0" x2="524.0" y2="592.0" stroke="#f0f0f0" stroke-width="0.5"/>
<text x="278.0" y="607.0" class="field-name">userAgent?</text>
<text x="524.0" y="607.0" text-anchor="end" class="field-type">String(255)</text>
<line x1="252.0" y1="614.0" x2="524.0" y2="614.0" stroke="#f0f0f0" stroke-width="0.5"/>
<text x="278.0" y="629.0" class="field-name">expiresAt</text>
<text x="524.0" y="629.0" text-anchor="end" class="field-type">DateTime</text>
<line x1="252.0" y1="636.0" x2="524.0" y2="636.0" stroke="#f0f0f0" stroke-width="0.5"/>
<text x="278.0" y="651.0" class="field-name">lastActivityAt?</text>
<text x="524.0" y="651.0" text-anchor="end" class="field-type">DateTime</text>
<rect x="448.0" y="60" width="300.0" height="158.0" rx="6" fill="#ffffff" stroke="#d0d7de" stroke-width="1" filter="url(#shadow)"/>
<rect x="448.0" y="60" width="300.0" height="32" rx="6" fill="#24292f"/>
<rect x="448.0" y="86" width="300.0" height="6" fill="#24292f"/>
<text x="462.0" y="81.0" class="entity-name">UserPreferences</text>
<text x="488.0" y="115.0" class="field-name">language</text>
<text x="734.0" y="115.0" text-anchor="end" class="field-type">String(10)</text>
<line x1="462.0" y1="122" x2="734.0" y2="122" stroke="#f0f0f0" stroke-width="0.5"/>
<text x="488.0" y="137.0" class="field-name">timezone</text>
<text x="734.0" y="137.0" text-anchor="end" class="field-type">String(50)</text>
<line x1="462.0" y1="144" x2="734.0" y2="144" stroke="#f0f0f0" stroke-width="0.5"/>
<text x="488.0" y="159.0" class="field-name">emailNotifications</text>
<text x="734.0" y="159.0" text-anchor="end" class="field-type">Boolean</text>
<line x1="462.0" y1="166" x2="734.0" y2="166" stroke="#f0f0f0" stroke-width="0.5"/>
<text x="488.0" y="181.0" class="field-name">smsNotifications</text>
<text x="734.0" y="181.0" text-anchor="end" class="field-type">Boolean</text>
<line x1="462.0" y1="188" x2="734.0" y2="188" stroke="#f0f0f0" stroke-width="0.5"/>
<text x="488.0" y="203.0" class="field-name">preferences</text>
<text x="734.0" y="203.0" text-anchor="end" class="field-type">JSON</text>
</svg>