<svg xmlns="http://www.w3.org/2000/svg" viewBox="0 0 400 746">
<style>
  .entity-name { font: bold 13px "Segoe UI", system-ui, -apple-system, sans-serif; fill: #ffffff; }
  .field-name { font: 11px "Segoe UI", system-ui, -apple-system, sans-serif; fill: #1f2328; }
  .field-type { font: 11px "Segoe UI", system-ui, -apple-system, sans-serif; fill: #656d76; }
  .pk-badge { font: bold 9px "Segoe UI", system-ui, -apple-system, sans-serif; fill: #cf222e; }
  .rel-line { stroke: #8b949e; fill: none; stroke-width: 1.5; }
  .cardinality { font: bold 11px "Segoe UI", system-ui, -apple-system, sans-serif; fill: #57606a; }
  .rel-label { font: italic 10px "Segoe UI", system-ui, -apple-system, sans-serif; fill: #656d76; }
  .title { font: bold 16px "Segoe UI", system-ui, -apple-system, sans-serif; fill: #1f2328; }
  .subtitle { font: 11px "Segoe UI", system-ui, -apple-system, sans-serif; fill: #656d76; }
</style>
<defs>
  <filter id="shadow" x="-4%" y="-4%" width="108%" height="112%">
    <feDropShadow dx="0" dy="1" stdDeviation="3" flood-color="rgba(0,0,0,0.08)"/>
  </filter>
</defs>
<rect width="400" height="746" fill="white"/>
<text x="28" y="44" class="title">ProductService</text>
<text x="28" y="58" class="subtitle">Entity-Relationship Diagram</text>
<path d="M 180.0 174.0 C 180.0 209.0 180.0 209.0 180.0 244.0" class="rel-line"/>
<text x="170.0" y="179.6" text-anchor="middle" class="cardinality">1</text>
<text x="170.0" y="238.4" text-anchor="middle" class="cardinality">*</text>
<rect x="160.0" y="197.0" width="40" height="14" rx="3" fill="white" stroke="#d0d7de" stroke-width="0.5"/>
<text x="180.0" y="207.0" text-anchor="middle" class="rel-label">products</text>
<path d="M 190.0 512.0 C 190.0 547.0 190.0 547.0 190.0 582.0" class="rel-line"/>
<text x="180.0" y="517.6" text-anchor="middle" class="cardinality">1</text>
<text x="180.0" y="576.4" text-anchor="middle" class="cardinality">*</text>
<rect x="50.0" y="60" width="300.0" height="114.0" rx="6" fill="#ffffff" stroke="#d0d7de" stroke-width="1" filter="url(#shadow)"/>
<rect x="50.0" y="60" width="300.0" height="32" rx="6" fill="#24292f"/>
<rect x="50.0" y="86" width="300.0" height="6" fill="#24292f"/>
<text x="64.0" y="81.0" class="entity-name">Category</text>
<text x="90.0" y="115.0" class="field-name">name</text>
<text x="336.0" y="115.0" text-anchor="end" class="field-type">String(100)</text>
<line x1="64.0" y1="122" x2="336.0" y2="122" stroke="#f0f0f0" stroke-width="0.5"/>
<text x="90.0" y="137.0" class="field-name">description?</text>
<text x="336.0" y="137.0" text-anchor="end" class="field-type">Text</text>
<line x1="64.0" y1="144" x2="336.0" y2="144" stroke="#f0f0f0" stroke-width="0.5"/>
<text x="90.0" y="159.0" class="field-name">slug</text>
<text x="336.0" y="159.0" text-anchor="end" class="field-type">Slug</text>
<rect x="50.0" y="244.0" width="300.0" height="268.0" rx="6" fill="#ffffff" stroke="#d0d7de" stroke-width="1" filter="url(#shadow)"/>
<rect x="50.0" y="244.0" width="300.0" height="32" rx="6" fill="#24292f"/>
<rect x="50.0" y="270.0" width="300.0" height="6" fill="#24292f"/>
<text x="64.0" y="265.0" class="entity-name">Product</text>
<text x="90.0" y="299.0" class="field-name">slug</text>
<text x="336.0" y="299.0" text-anchor="end" class="field-type">String(200)</text>
<line x1="64.0" y1="306.0" x2="336.0" y2="306.0" stroke="#f0f0f0" stroke-width="0.5"/>
<text x="90.0" y="321.0" class="field-name">price</text>
<text x="336.0" y="321.0" text-anchor="end" class="field-type">Money</text>
<line x1="64.0" y1="328.0" x2="336.0" y2="328.0" stroke="#f0f0f0" stroke-width="0.5"/>
<text x="90.0" y="343.0" class="field-name">compareAtPrice?</text>
<text x="336.0" y="343.0" text-anchor="end" class="field-type">Money</text>
<line x1="64.0" y1="350.0" x2="336.0" y2="350.0" stroke="#f0f0f0" stroke-width="0.5"/>
<text x="90.0" y="365.0" class="field-name">inventory</text>
<text x="336.0" y="365.0" text-anchor="end" class="field-type">Integer</text>
<line x1="64.0" y1="372.0" x2="336.0" y2="372.0" stroke="#f0f0f0" stroke-width="0.5"/>
<text x="90.0" y="387.0" class="field-name">name</text>
<text x="336.0" y="387.0" text-anchor="end" class="field-type">String(200)</text>
<line x1="64.0" y1="394.0" x2="336.0" y2="394.0" stroke="#f0f0f0" stroke-width="0.5"/>
<text x="90.0" y="409.0" class="field-name">description</text>
<text x="336.0" y="409.0" text-anchor="end" class="field-type">Text</text>
<line x1="64.0" y1="416.0" x2="336.0" y2="416.0" stroke="#f0f0f0" stroke-width="0.5"/>
<text x="90.0" y="431.0" class="field-name">status</text>
<text x="336.0" y="431.0" text-anchor="end" class="field-type">ProductStatus</text>
<line x1="64.0" y1="438.0" x2="336.0" y2="438.0" stroke="#f0f0f0" stroke-width="0.5"/>
<text x="90.0" y="453.0" class="field-name">productMetadata?</text>
<text x="336.0" y="453.0" text-anchor="end" class="field-type">JSON</text>
<line x1="64.0" y1="460.0" x2="336.0" y2="460.0" stroke="#f0f0f0" stroke-width="0.5"/>
<text x="90.0" y="475.0" class="field-name">images</text>
<text x="336.0" y="475.0" text-anchor="end" class="field-type">JSON</text>
<line x1="64.0" y1="482.0" x2="336.0" y2="482.0" stroke="#f0f0f0" stroke-width="0.5"/>
<text x="90.0" y="497.0" class="field-name">tags</text>
<text x="336.0" y="497.0" text-anchor="end" class="field-type">JSON</text>
<rect x="50.0" y="582.0" width="300.0" height="136.0" rx="6" fill="#ffffff" stroke="#d0d7de" stroke-width="1" filter="url(#shadow)"/>
<rect x="50.0" y="582.0" width="300.0" height="32" rx="6" fill="#24292f"/>
<rect x="50.0" y="608.0" width="300.0" height="6" fill="#24292f"/>
<text x="64.0" y="603.0" class="entity-name">InventoryReservation</text>
<text x="90.0" y="637.0" class="field-name">reservationId</text>
<text x="336.0" y="637.0" text-anchor="end" class="field-type">UUID</text>
<line x1="64.0" y1="644.0" x2="336.0" y2="644.0" stroke="#f0f0f0" stroke-width="0.5"/>
<text x="90.0" y="659.0" class="field-name">quantity</text>
<text x="336.0" y="659.0" text-anchor="end" class="field-type">Integer</text>
<line x1="64.0" y1="666.0" x2="336.0" y2="666.0" stroke="#f0f0f0" stroke-width="0.5"/>
<text x="90.0" y="681.0" class="field-name">status</text>
<text x="336.0" y="681.0" text-anchor="end" class="field-type">ReservationStatus</text>
<line x1="64.0" y1="688.0" x2="336.0" y2="688.0" stroke="#f0f0f0" stroke-width="0.5"/>
<text x="90.0" y="703.0" class="field-name">expiresAt</text>
<text x="336.0" y="703.0" text-anchor="end" class="field-type">DateTime</text>
</svg>