<svg xmlns="http://www.w3.org/2000/svg" viewBox="0 0 776 628">
<style>
  .entity-name { font: bold 13px "Segoe UI", system-ui, -apple-system, sans-serif; fill: #ffffff; }
  .field-name { font: 11px "Segoe UI", system-ui, -apple-system, sans-serif; fill: #1f2328; }
  .field-type { font: 11px "Segoe UI", system-ui, -apple-system, sans-serif; fill: #656d76; }
  .pk-badge { font: bold 9px "Segoe UI", system-ui, -apple-system, sans-serif; fill: #cf222e; }
  .rel-line { stroke: #8b949e; fill: none; stroke-width: 1.5; }
  .cardinality { font: bold 11px "Segoe UI", system-ui, -apple-system, sans-serif; fill: #57606a; }
  .rel-label { font: italic 10px "Segoe UI", system-ui, -apple-system, sans-serif; fill: #656d76; }
  .title { font: bold 16px "Segoe UI", system-ui, -apple-system, sans-serif; fill: #1f2328; }
  .subtitle { font: 11px "Segoe UI", system-ui, -apple-system, sans-serif; fill: #656d76; }
</style>
<defs>
  <filter id="shadow" x="-4%" y="-4%" width="108%" height="112%">
    <feDropShadow dx="0" dy="1" stdDeviation="3" flood-color="rgba(0,0,0,0.08)"/>
  </filter>
</defs>
<rect width="776" height="628" fill="white"/>
<text x="28" y="44" class="title">OrderService</text>
<text x="28" y="58" class="subtitle">Entity-Relationship Diagram</text>
<path d="M 158.0 394.0 C 158.0 429.0 368.0 429.0 368.0 464.0" class="rel-line"/>
<text x="171.6" y="409.1" text-anchor="middle" class="cardinality">1</text>
<text x="348.0" y="467.9" text-anchor="middle" class="cardinality">*</text>
<rect x="243.0" y="417.0" width="40" height="14" rx="3" fill="white" stroke="#d0d7de" stroke-width="0.5"/>
<text x="263.0" y="427.0" text-anchor="middle" class="rel-label">items</text>
<rect x="28.0" y="60" width="300.0" height="334.0" rx="6" fill="#ffffff" stroke="#d0d7de" stroke-width="1" filter="url(#shadow)"/>
<rect x="28.0" y="60" width="300.0" height="32" rx="6" fill="#24292f"/>
<rect x="28.0" y="86" width="300.0" height="6" fill="#24292f"/>
<text x="42.0" y="81.0" class="entity-name">Order</text>
<text x="68.0" y="115.0" class="field-name">customerId</text>
<text x="314.0" y="115.0" text-anchor="end" class="field-type">UUID</text>
<line x1="42.0" y1="122" x2="314.0" y2="122" stroke="#f0f0f0" stroke-width="0.5"/>
<text x="68.0" y="137.0" class="field-name">orderNumber</text>
<text x="314.0" y="137.0" text-anchor="end" class="field-type">String(20)</text>
<line x1="42.0" y1="144" x2="314.0" y2="144" stroke="#f0f0f0" stroke-width="0.5"/>
<text x="68.0" y="159.0" class="field-name">status</text>
<text x="314.0" y="159.0" text-anchor="end" class="field-type">OrderStatus</text>
<line x1="42.0" y1="166" x2="314.0" y2="166" stroke="#f0f0f0" stroke-width="0.5"/>
<text x="68.0" y="181.0" class="field-name">subtotal</text>
<text x="314.0" y="181.0" text-anchor="end" class="field-type">Money</text>
<line x1="42.0" y1="188" x2="314.0" y2="188" stroke="#f0f0f0" stroke-width="0.5"/>
<text x="68.0" y="203.0" class="field-name">tax</text>
<text x="314.0" y="203.0" text-anchor="end" class="field-type">Money</text>
<line x1="42.0" y1="210" x2="314.0" y2="210" stroke="#f0f0f0" stroke-width="0.5"/>
<text x="68.0" y="225.0" class="field-name">shippingCost</text>
<text x="314.0" y="225.0" text-anchor="end" class="field-type">Money</text>
<line x1="42.0" y1="232" x2="314.0" y2="232" stroke="#f0f0f0" stroke-width="0.5"/>
<text x="68.0" y="247.0" class="field-name">discount</text>
<text x="314.0" y="247.0" text-anchor="end" class="field-type">Money</text>
<line x1="42.0" y1="254" x2="314.0" y2="254" stroke="#f0f0f0" stroke-width="0.5"/>
<text x="68.0" y="269.0" class="field-name">shippingAddress</text>
<text x="314.0" y="269.0" text-anchor="end" class="field-type">Address</text>
<line x1="42.0" y1="276" x2="314.0" y2="276" stroke="#f0f0f0" stroke-width="0.5"/>
<text x="68.0" y="291.0" class="field-name">billingAddress</text>
<text x="314.0" y="291.0" text-anchor="end" class="field-type">Address</text>
<line x1="42.0" y1="298" x2="314.0" y2="298" stroke="#f0f0f0" stroke-width="0.5"/>
<text x="68.0" y="313.0" class="field-name">inventoryReservationId</text>
<text x="314.0" y="313.0" text-anchor="end" class="field-type">UUID</text>
<line x1="42.0" y1="320" x2="314.0" y2="320" stroke="#f0f0f0" stroke-width="0.5"/>
<text x="68.0" y="335.0" class="field-name">paymentId?</text>
<text x="314.0" y="335.0" text-anchor="end" class="field-type">UUID</text>
<line x1="42.0" y1="342" x2="314.0" y2="342" stroke="#f0f0f0" stroke-width="0.5"/>
<text x="68.0" y="357.0" class="field-name">shipmentId?</text>
<text x="314.0" y="357.0" text-anchor="end" class="field-type">UUID</text>
<line x1="42.0" y1="364" x2="314.0" y2="364" stroke="#f0f0f0" stroke-width="0.5"/>
<text x="68.0" y="379.0" class="field-name">cancellationReason?</text>
<text x="314.0" y="379.0" text-anchor="end" class="field-type">String</text>
<rect x="238.0" y="464.0" width="300.0" height="136.0" rx="6" fill="#ffffff" stroke="#d0d7de" stroke-width="1" filter="url(#shadow)"/>
<rect x="238.0" y="464.0" width="300.0" height="32" rx="6" fill="#24292f"/>
<rect x="238.0" y="490.0" width="300.0" height="6" fill="#24292f"/>
<text x="252.0" y="485.0" class="entity-name">OrderItem</text>
<text x="278.0" y="519.0" class="field-name">productId</text>
<text x="524.0" y="519.0" text-anchor="end" class="field-type">UUID</text>
<line x1="252.0" y1="526.0" x2="524.0" y2="526.0" stroke="#f0f0f0" stroke-width="0.5"/>
<text x="278.0" y="541.0" class="field-name">productName</text>
<text x="524.0" y="541.0" text-anchor="end" class="field-type">String(200)</text>
<line x1="252.0" y1="548.0" x2="524.0" y2="548.0" stroke="#f0f0f0" stroke-width="0.5"/>
<text x="278.0" y="563.0" class="field-name">quantity</text>
<text x="524.0" y="563.0" text-anchor="end" class="field-type">Integer</text>
<line x1="252.0" y1="570.0" x2="524.0" y2="570.0" stroke="#f0f0f0" stroke-width="0.5"/>
<text x="278.0" y="585.0" class="field-name">unitPrice</text>
<text x="524.0" y="585.0" text-anchor="end" class="field-type">Money</text>
<rect x="448.0" y="60" width="300.0" height="158.0" rx="6" fill="#ffffff" stroke="#d0d7de" stroke-width="1" filter="url(#shadow)"/>
<rect x="448.0" y="60" width="300.0" height="32" rx="6" fill="#24292f"/>
<rect x="448.0" y="86" width="300.0" height="6" fill="#24292f"/>
<text x="462.0" y="81.0" class="entity-name">IdempotencyKey</text>
<text x="488.0" y="115.0" class="field-name">key</text>
<text x="734.0" y="115.0" text-anchor="end" class="field-type">String(100)</text>
<line x1="462.0" y1="122" x2="734.0" y2="122" stroke="#f0f0f0" stroke-width="0.5"/>
<text x="488.0" y="137.0" class="field-name">operation</text>
<text x="734.0" y="137.0" text-anchor="end" class="field-type">String(50)</text>
<line x1="462.0" y1="144" x2="734.0" y2="144" stroke="#f0f0f0" stroke-width="0.5"/>
<text x="488.0" y="159.0" class="field-name">resourceId?</text>
<text x="734.0" y="159.0" text-anchor="end" class="field-type">UUID</text>
<line x1="462.0" y1="166" x2="734.0" y2="166" stroke="#f0f0f0" stroke-width="0.5"/>
<text x="488.0" y="181.0" class="field-name">response?</text>
<text x="734.0" y="181.0" text-anchor="end" class="field-type">JSON</text>
<line x1="462.0" y1="188" x2="734.0" y2="188" stroke="#f0f0f0" stroke-width="0.5"/>
<text x="488.0" y="203.0" class="field-name">expiresAt</text>
<text x="734.0" y="203.0" text-anchor="end" class="field-type">DateTime</text>
</svg>