<svg xmlns="http://www.w3.org/2000/svg" viewBox="0 0 824 562">
<style>
  .header-text { font: bold 13px "Segoe UI", system-ui, -apple-system, sans-serif; fill: #ffffff; }
  .topic-text { font: bold 11px "Segoe UI", system-ui, -apple-system, sans-serif; fill: #0550ae; }
  .event-text { font: 11px "Segoe UI", system-ui, -apple-system, sans-serif; fill: #1f2328; }
  .handler-text { font: 11px "Segoe UI", system-ui, -apple-system, sans-serif; fill: #116329; }
  .incoming-text { font: 11px "Segoe UI", system-ui, -apple-system, sans-serif; fill: #7d4e00; }
  .section-label { font: bold 10px "Segoe UI", system-ui, -apple-system, sans-serif; fill: #656d76; text-transform: uppercase; letter-spacing: 0.5px; }
  .cross-label { font: italic 10px "Segoe UI", system-ui, -apple-system, sans-serif; fill: #a40e26; }
  .arrow-self { stroke: #656d76; fill: none; stroke-width: 1.5; marker-end: url(#arrow-self); }
  .arrow-cross { stroke: #cf222e; fill: none; stroke-width: 1.5; stroke-dasharray: 6,3; marker-end: url(#arrow-cross); }
</style>
<defs>
  <marker id="arrow-self" viewBox="0 0 10 10" refX="9" refY="5"
          markerWidth="6" markerHeight="6" orient="auto-start-reverse">
    <path d="M 0 0 L 10 5 L 0 10 z" fill="#656d76"/>
  </marker>
  <marker id="arrow-cross" viewBox="0 0 10 10" refX="9" refY="5"
          markerWidth="6" markerHeight="6" orient="auto-start-reverse">
    <path d="M 0 0 L 10 5 L 0 10 z" fill="#cf222e"/>
  </marker>
</defs>
<rect width="824" height="562" fill="white"/>
<rect x="20" y="20" width="660" height="148" rx="8" fill="#ffffff" stroke="#d0d7de" stroke-width="1"/>
<rect x="20" y="20" width="660" height="34" rx="8" fill="#24292f"/>
<rect x="20" y="46" width="660" height="8" fill="#24292f"/>
<text x="36" y="42.0" class="header-text">AuthorService</text>
<rect x="36" y="66" width="220" height="84" rx="6" fill="#ddf4ff" stroke="#54aeff" stroke-width="0.5"/>
<text x="46" y="84" class="topic-text">AuthorEvents</text>
<rect x="44" y="94" width="204" height="22" rx="4" fill="#f6f8fa" stroke="#d0d7de" stroke-width="0.5"/>
<text x="52" y="109.0" class="event-text">AuthorRegistered</text>
<rect x="44" y="120" width="204" height="22" rx="4" fill="#f6f8fa" stroke="#d0d7de" stroke-width="0.5"/>
<text x="52" y="135.0" class="event-text">AuthorStatusChanged</text>
<rect x="20" y="212" width="660" height="122" rx="8" fill="#ffffff" stroke="#d0d7de" stroke-width="1"/>
<rect x="20" y="212" width="660" height="34" rx="8" fill="#24292f"/>
<rect x="20" y="238" width="660" height="8" fill="#24292f"/>
<text x="36" y="234.0" class="header-text">CommentService</text>
<rect x="36" y="258" width="220" height="58" rx="6" fill="#ddf4ff" stroke="#54aeff" stroke-width="0.5"/>
<text x="46" y="276" class="topic-text">CommentEvents</text>
<rect x="44" y="286" width="204" height="22" rx="4" fill="#f6f8fa" stroke="#d0d7de" stroke-width="0.5"/>
<text x="52" y="301.0" class="event-text">CommentApproved</text>
<rect x="20" y="378" width="660" height="164" rx="8" fill="#ffffff" stroke="#d0d7de" stroke-width="1"/>
<rect x="20" y="378" width="660" height="34" rx="8" fill="#24292f"/>
<rect x="20" y="404" width="660" height="8" fill="#24292f"/>
<text x="36" y="400.0" class="header-text">ContentService</text>
<line x1="36" y1="427" x2="664" y2="427" stroke="#d8dee4" stroke-width="1" stroke-dasharray="4,3"/>
<text x="36" y="444" class="section-label">Subscribes to</text>
<rect x="36" y="454" width="220" height="22" rx="4" fill="#fff8c5" stroke="#d4a72c" stroke-width="0.5"/>
<text x="44" y="469.0" class="incoming-text">on AuthorRegistered</text>
<rect x="36" y="480" width="220" height="22" rx="4" fill="#fff8c5" stroke="#d4a72c" stroke-width="0.5"/>
<text x="44" y="495.0" class="incoming-text">on AuthorStatusChanged</text>
<rect x="36" y="506" width="220" height="22" rx="4" fill="#fff8c5" stroke="#d4a72c" stroke-width="0.5"/>
<text x="44" y="521.0" class="incoming-text">on CommentApproved</text>
<path d="M 680 105.0 L 694.0 105.0 Q 700 105.0 700 111.0 L 700 459.0 Q 700 465.0 694.0 465.0 L 256 465.0" class="arrow-cross"/>
<text x="260" y="459.0" class="cross-label">AuthorService.AuthorRegistered</text>
<path d="M 680 131.0 L 706.0 131.0 Q 712 131.0 712 137.0 L 712 485.0 Q 712 491.0 706.0 491.0 L 256 491.0" class="arrow-cross"/>
<text x="260" y="485.0" class="cross-label">AuthorService.AuthorStatusChanged</text>
<path d="M 680 297.0 L 718.0 297.0 Q 724 297.0 724 303.0 L 724 511.0 Q 724 517.0 718.0 517.0 L 256 517.0" class="arrow-cross"/>
<text x="260" y="511.0" class="cross-label">CommentService.CommentApproved</text>
</svg>