<svg xmlns="http://www.w3.org/2000/svg" viewBox="0 0 716 272">
<style>
  .svc-label { font: bold 11px 'Segoe UI', system-ui, -apple-system, sans-serif; fill: #ffffff; }
  .infra-label { font: bold 11px 'Segoe UI', system-ui, -apple-system, sans-serif; fill: #1f2328; }
  .section-label { font: bold 10px 'Segoe UI', system-ui, -apple-system, sans-serif; fill: #656d76; text-transform: uppercase; letter-spacing: 0.5px; }
</style>
<defs><marker id="http-arrow" viewBox="0 0 10 10" refX="9" refY="5" markerWidth="6" markerHeight="6" orient="auto-start-reverse"><path d="M 0 0 L 10 5 L 0 10 z" fill="#57606a"/></marker></defs>
<rect width="716" height="272" fill="white"/>
<text x="28" y="44" style="font: bold 16px 'Segoe UI', system-ui, -apple-system, sans-serif; fill: #1f2328;">Service Map</text>
<text x="28" y="60" style="font: 11px 'Segoe UI', system-ui, -apple-system, sans-serif; fill: #656d76;">Services and shared infrastructure</text>
<text x="28" y="66" class="section-label">Services</text>
<text x="28" y="198" class="section-label">Infrastructure</text>
<path d="M 148.0 112.0 C 148.0 160.0 128.0 160.0 128.0 208.0" stroke="#b0b8c0" fill="none" stroke-width="1.0"/>
<path d="M 358.0 112.0 C 243.0 112.0 243.0 208.0 128.0 208.0" stroke="#b0b8c0" fill="none" stroke-width="1.0"/>
<path d="M 568.0 112.0 C 348.0 112.0 348.0 208.0 128.0 208.0" stroke="#b0b8c0" fill="none" stroke-width="1.0"/>
<path d="M 148.0 112.0 C 253.0 112.0 253.0 208.0 358.0 208.0" stroke="#b0b8c0" fill="none" stroke-width="1.0"/>
<path d="M 358.0 112.0 C 358.0 160.0 358.0 160.0 358.0 208.0" stroke="#b0b8c0" fill="none" stroke-width="1.0"/>
<path d="M 568.0 112.0 C 463.0 112.0 463.0 208.0 358.0 208.0" stroke="#b0b8c0" fill="none" stroke-width="1.0"/>
<path d="M 358.0 112.0 C 473.0 112.0 473.0 208.0 588.0 208.0" stroke="#b0b8c0" fill="none" stroke-width="1.0"/>
<path d="M 268.0 94.0 C 253.0 94.0 253.0 94.0 238.0 94.0" stroke="#57606a" fill="none" stroke-width="1.0" marker-end="url(#http-arrow)"/>
<path d="M 478.0 94.0 C 463.0 94.0 463.0 94.0 448.0 94.0" stroke="#57606a" fill="none" stroke-width="1.0" marker-end="url(#http-arrow)"/>
<rect x="58.0" y="76" width="180" height="36" rx="8" fill="#24292f" stroke="#d0d7de" stroke-width="1"/>
<text x="148.0" y="98.0" text-anchor="middle" class="svc-label">AuthorService</text>
<rect x="268.0" y="76" width="180" height="36" rx="8" fill="#24292f" stroke="#d0d7de" stroke-width="1"/>
<text x="358.0" y="98.0" text-anchor="middle" class="svc-label">ContentService</text>
<rect x="478.0" y="76" width="180" height="36" rx="8" fill="#24292f" stroke="#d0d7de" stroke-width="1"/>
<text x="568.0" y="98.0" text-anchor="middle" class="svc-label">CommentService</text>
<rect x="28.0" y="208" width="200" height="36" rx="6" fill="#ddf4ff" stroke="#54aeff" stroke-width="1"/>
<text x="128.0" y="230.0" text-anchor="middle" class="infra-label">postgres (localhost:5432)</text>
<rect x="258.0" y="208" width="200" height="36" rx="6" fill="#fff8c5" stroke="#d4a72c" stroke-width="1"/>
<text x="358.0" y="230.0" text-anchor="middle" class="infra-label">kafka (localhost:9092)</text>
<rect x="488.0" y="208" width="200" height="36" rx="6" fill="#dafbe1" stroke="#4ac26b" stroke-width="1"/>
<text x="588.0" y="230.0" text-anchor="middle" class="infra-label">redis (localhost:6379)</text>
</svg>