<svg xmlns="http://www.w3.org/2000/svg" viewBox="0 0 1016 204">
<style>
  .item-text { font: 11px 'Segoe UI', system-ui, -apple-system, sans-serif; }
  .col-label { font: bold 10px 'Segoe UI', system-ui, -apple-system, sans-serif; fill: #656d76; text-transform: uppercase; letter-spacing: 0.5px; }
  .svc-label { font: bold 13px 'Segoe UI', system-ui, -apple-system, sans-serif; fill: #1f2328; }
</style>
<defs><marker id="cqrs-arrow" viewBox="0 0 10 10" refX="9" refY="5" markerWidth="6" markerHeight="6" orient="auto-start-reverse"><path d="M 0 0 L 10 5 L 0 10 z" fill="#57606a"/></marker></defs>
<rect width="1016" height="204" fill="white"/>
<text x="28" y="44" style="font: bold 16px 'Segoe UI', system-ui, -apple-system, sans-serif; fill: #1f2328;">CQRS Data Flow</text>
<text x="108.0" y="70" text-anchor="middle" class="col-label">Commands</text>
<text x="308.0" y="70" text-anchor="middle" class="col-label">Events</text>
<text x="508.0" y="70" text-anchor="middle" class="col-label">Projections</text>
<text x="708.0" y="70" text-anchor="middle" class="col-label">Views</text>
<text x="908.0" y="70" text-anchor="middle" class="col-label">Queries</text>
<text x="28" y="92" class="svc-label">BookService</text>
<path d="M 828.0 119.0 C 808.0 119.0 808.0 119.0 788.0 119.0" stroke="#57606a" fill="none" stroke-width="1.5" marker-end="url(#cqrs-arrow)"/>
<path d="M 828.0 161.0 C 808.0 161.0 808.0 119.0 788.0 119.0" stroke="#57606a" fill="none" stroke-width="1.5" marker-end="url(#cqrs-arrow)"/>
<path d="M 388.0 119.0 C 408.0 119.0 408.0 119.0 428.0 119.0" stroke="#57606a" fill="none" stroke-width="1.5" marker-end="url(#cqrs-arrow)"/>
<path d="M 388.0 161.0 C 408.0 161.0 408.0 119.0 428.0 119.0" stroke="#57606a" fill="none" stroke-width="1.5" marker-end="url(#cqrs-arrow)"/>
<path d="M 588.0 119.0 C 608.0 119.0 608.0 119.0 628.0 119.0" stroke="#57606a" fill="none" stroke-width="1.5" marker-end="url(#cqrs-arrow)"/>
<rect x="28" y="104" width="160" height="30" rx="6" fill="#f6f8fa" stroke="#d0d7de" stroke-width="1"/>
<text x="108.0" y="123.0" text-anchor="middle" style="fill: #1f2328;" class="item-text">UpdateBookStatus</text>
<rect x="628" y="104" width="160" height="30" rx="6" fill="#dafbe1" stroke="#4ac26b" stroke-width="1"/>
<text x="708.0" y="123.0" text-anchor="middle" style="fill: #116329;" class="item-text">BookCatalogView</text>
<rect x="828" y="104" width="160" height="30" rx="6" fill="#f6f8fa" stroke="#d0d7de" stroke-width="1"/>
<text x="908.0" y="123.0" text-anchor="middle" style="fill: #1f2328;" class="item-text">GetAvailableBooks</text>
<rect x="828" y="146" width="160" height="30" rx="6" fill="#f6f8fa" stroke="#d0d7de" stroke-width="1"/>
<text x="908.0" y="165.0" text-anchor="middle" style="fill: #1f2328;" class="item-text">SearchCatalog</text>
<rect x="428" y="104" width="160" height="30" rx="6" fill="#fff8c5" stroke="#d4a72c" stroke-width="1"/>
<text x="508.0" y="123.0" text-anchor="middle" style="fill: #7d4e00;" class="item-text">BookCatalogProjection</text>
<rect x="228" y="104" width="160" height="30" rx="6" fill="#ddf4ff" stroke="#54aeff" stroke-width="1"/>
<text x="308.0" y="123.0" text-anchor="middle" style="fill: #0550ae;" class="item-text">BookAdded</text>
<rect x="228" y="146" width="160" height="30" rx="6" fill="#ddf4ff" stroke="#54aeff" stroke-width="1"/>
<text x="308.0" y="165.0" text-anchor="middle" style="fill: #0550ae;" class="item-text">BookStatusChanged</text>
</svg>