<svg xmlns="http://www.w3.org/2000/svg" viewBox="0 0 776 540">
<style>
  .entity-name { font: bold 13px "Segoe UI", system-ui, -apple-system, sans-serif; fill: #ffffff; }
  .field-name { font: 11px "Segoe UI", system-ui, -apple-system, sans-serif; fill: #1f2328; }
  .field-type { font: 11px "Segoe UI", system-ui, -apple-system, sans-serif; fill: #656d76; }
  .pk-badge { font: bold 9px "Segoe UI", system-ui, -apple-system, sans-serif; fill: #cf222e; }
  .rel-line { stroke: #8b949e; fill: none; stroke-width: 1.5; }
  .cardinality { font: bold 11px "Segoe UI", system-ui, -apple-system, sans-serif; fill: #57606a; }
  .rel-label { font: italic 10px "Segoe UI", system-ui, -apple-system, sans-serif; fill: #656d76; }
  .title { font: bold 16px "Segoe UI", system-ui, -apple-system, sans-serif; fill: #1f2328; }
  .subtitle { font: 11px "Segoe UI", system-ui, -apple-system, sans-serif; fill: #656d76; }
</style>
<defs>
  <filter id="shadow" x="-4%" y="-4%" width="108%" height="112%">
    <feDropShadow dx="0" dy="1" stdDeviation="3" flood-color="rgba(0,0,0,0.08)"/>
  </filter>
</defs>
<rect width="776" height="540" fill="white"/>
<text x="28" y="44" class="title">ShippingService</text>
<text x="28" y="58" class="subtitle">Entity-Relationship Diagram</text>
<path d="M 368.0 306.0 C 368.0 341.0 158.0 341.0 158.0 376.0" class="rel-line"/>
<text x="348.0" y="302.1" text-anchor="middle" class="cardinality">1</text>
<text x="171.6" y="360.9" text-anchor="middle" class="cardinality">*</text>
<rect x="243.0" y="329.0" width="40" height="14" rx="3" fill="white" stroke="#d0d7de" stroke-width="0.5"/>
<text x="263.0" y="339.0" text-anchor="middle" class="rel-label">events</text>
<path d="M 378.0 306.0 C 378.0 341.0 588.0 341.0 588.0 376.0" class="rel-line"/>
<text x="391.6" y="321.1" text-anchor="middle" class="cardinality">1</text>
<text x="568.0" y="379.9" text-anchor="middle" class="cardinality">*</text>
<rect x="238.0" y="60" width="300.0" height="246.0" rx="6" fill="#ffffff" stroke="#d0d7de" stroke-width="1" filter="url(#shadow)"/>
<rect x="238.0" y="60" width="300.0" height="32" rx="6" fill="#24292f"/>
<rect x="238.0" y="86" width="300.0" height="6" fill="#24292f"/>
<text x="252.0" y="81.0" class="entity-name">Shipment</text>
<text x="278.0" y="115.0" class="field-name">orderId</text>
<text x="524.0" y="115.0" text-anchor="end" class="field-type">UUID</text>
<line x1="252.0" y1="122" x2="524.0" y2="122" stroke="#f0f0f0" stroke-width="0.5"/>
<text x="278.0" y="137.0" class="field-name">trackingNumber</text>
<text x="524.0" y="137.0" text-anchor="end" class="field-type">String(50)</text>
<line x1="252.0" y1="144" x2="524.0" y2="144" stroke="#f0f0f0" stroke-width="0.5"/>
<text x="278.0" y="159.0" class="field-name">carrier</text>
<text x="524.0" y="159.0" text-anchor="end" class="field-type">ShippingCarrier</text>
<line x1="252.0" y1="166" x2="524.0" y2="166" stroke="#f0f0f0" stroke-width="0.5"/>
<text x="278.0" y="181.0" class="field-name">status</text>
<text x="524.0" y="181.0" text-anchor="end" class="field-type">ShipmentStatus</text>
<line x1="252.0" y1="188" x2="524.0" y2="188" stroke="#f0f0f0" stroke-width="0.5"/>
<text x="278.0" y="203.0" class="field-name">destination</text>
<text x="524.0" y="203.0" text-anchor="end" class="field-type">Address</text>
<line x1="252.0" y1="210" x2="524.0" y2="210" stroke="#f0f0f0" stroke-width="0.5"/>
<text x="278.0" y="225.0" class="field-name">weight</text>
<text x="524.0" y="225.0" text-anchor="end" class="field-type">Decimal(10, 2)</text>
<line x1="252.0" y1="232" x2="524.0" y2="232" stroke="#f0f0f0" stroke-width="0.5"/>
<text x="278.0" y="247.0" class="field-name">estimatedDelivery?</text>
<text x="524.0" y="247.0" text-anchor="end" class="field-type">DateTime</text>
<line x1="252.0" y1="254" x2="524.0" y2="254" stroke="#f0f0f0" stroke-width="0.5"/>
<text x="278.0" y="269.0" class="field-name">actualDelivery?</text>
<text x="524.0" y="269.0" text-anchor="end" class="field-type">DateTime</text>
<line x1="252.0" y1="276" x2="524.0" y2="276" stroke="#f0f0f0" stroke-width="0.5"/>
<text x="278.0" y="291.0" class="field-name">failureReason?</text>
<text x="524.0" y="291.0" text-anchor="end" class="field-type">String</text>
<rect x="28.0" y="376.0" width="300.0" height="136.0" rx="6" fill="#ffffff" stroke="#d0d7de" stroke-width="1" filter="url(#shadow)"/>
<rect x="28.0" y="376.0" width="300.0" height="32" rx="6" fill="#24292f"/>
<rect x="28.0" y="402.0" width="300.0" height="6" fill="#24292f"/>
<text x="42.0" y="397.0" class="entity-name">ShipmentEvent</text>
<text x="68.0" y="431.0" class="field-name">timestamp</text>
<text x="314.0" y="431.0" text-anchor="end" class="field-type">DateTime</text>
<line x1="42.0" y1="438.0" x2="314.0" y2="438.0" stroke="#f0f0f0" stroke-width="0.5"/>
<text x="68.0" y="453.0" class="field-name">status</text>
<text x="314.0" y="453.0" text-anchor="end" class="field-type">ShipmentStatus</text>
<line x1="42.0" y1="460.0" x2="314.0" y2="460.0" stroke="#f0f0f0" stroke-width="0.5"/>
<text x="68.0" y="475.0" class="field-name">location</text>
<text x="314.0" y="475.0" text-anchor="end" class="field-type">String(200)</text>
<line x1="42.0" y1="482.0" x2="314.0" y2="482.0" stroke="#f0f0f0" stroke-width="0.5"/>
<text x="68.0" y="497.0" class="field-name">description?</text>
<text x="314.0" y="497.0" text-anchor="end" class="field-type">Text</text>
<rect x="448.0" y="376.0" width="300.0" height="92.0" rx="6" fill="#ffffff" stroke="#d0d7de" stroke-width="1" filter="url(#shadow)"/>
<rect x="448.0" y="376.0" width="300.0" height="32" rx="6" fill="#24292f"/>
<rect x="448.0" y="402.0" width="300.0" height="6" fill="#24292f"/>
<text x="462.0" y="397.0" class="entity-name">ShipmentItem</text>
<text x="488.0" y="431.0" class="field-name">productId</text>
<text x="734.0" y="431.0" text-anchor="end" class="field-type">UUID</text>
<line x1="462.0" y1="438.0" x2="734.0" y2="438.0" stroke="#f0f0f0" stroke-width="0.5"/>
<text x="488.0" y="453.0" class="field-name">quantity</text>
<text x="734.0" y="453.0" text-anchor="end" class="field-type">Integer</text>
</svg>