<svg xmlns="http://www.w3.org/2000/svg" viewBox="0 0 2456 1032">
<style>
  .entity-name { font: bold 13px "Segoe UI", system-ui, -apple-system, sans-serif; fill: #ffffff; }
  .field-name { font: 11px "Segoe UI", system-ui, -apple-system, sans-serif; fill: #1f2328; }
  .field-type { font: 11px "Segoe UI", system-ui, -apple-system, sans-serif; fill: #656d76; }
  .pk-badge { font: bold 9px "Segoe UI", system-ui, -apple-system, sans-serif; fill: #cf222e; }
  .rel-line { stroke: #8b949e; fill: none; stroke-width: 1.5; }
  .cardinality { font: bold 11px "Segoe UI", system-ui, -apple-system, sans-serif; fill: #57606a; }
  .rel-label { font: italic 10px "Segoe UI", system-ui, -apple-system, sans-serif; fill: #656d76; }
  .title { font: bold 16px "Segoe UI", system-ui, -apple-system, sans-serif; fill: #1f2328; }
  .subtitle { font: 11px "Segoe UI", system-ui, -apple-system, sans-serif; fill: #656d76; }
</style>
<defs>
  <filter id="shadow" x="-4%" y="-4%" width="108%" height="112%">
    <feDropShadow dx="0" dy="1" stdDeviation="3" flood-color="rgba(0,0,0,0.08)"/>
  </filter>
</defs>
<rect width="2456" height="1032" fill="white"/>
<text x="28" y="44" class="title">BookService</text>
<text x="28" y="58" class="subtitle">Entity-Relationship Diagram</text>
<path d="M 158.0 152.0 C 158.0 231.0 1418.0 231.0 1418.0 310.0" class="rel-line"/>
<text x="257.6" y="174.6" text-anchor="middle" class="cardinality">1</text>
<text x="1316.0" y="307.3" text-anchor="middle" class="cardinality">*</text>
<rect x="768.0" y="219.0" width="40" height="14" rx="3" fill="white" stroke="#d0d7de" stroke-width="0.5"/>
<text x="788.0" y="229.0" text-anchor="middle" class="rel-label">books</text>
<path d="M 1008.0 152.0 C 1008.0 488.0 798.0 488.0 798.0 824.0" class="rel-line"/>
<text x="981.7" y="202.8" text-anchor="middle" class="cardinality">1</text>
<text x="805.3" y="767.3" text-anchor="middle" class="cardinality">*</text>
<rect x="883.0" y="476.0" width="40" height="14" rx="3" fill="white" stroke="#d0d7de" stroke-width="0.5"/>
<text x="903.0" y="486.0" text-anchor="middle" class="rel-label">bookTags</text>
<path d="M 1438.0 754.0 C 1438.0 789.0 808.0 789.0 808.0 824.0" class="rel-line"/>
<text x="1386.5" y="749.7" text-anchor="middle" class="cardinality">1</text>
<text x="857.3" y="808.5" text-anchor="middle" class="cardinality">*</text>
<path d="M 1448.0 218.0 C 1448.0 264.0 1028.0 264.0 1028.0 310.0" class="rel-line"/>
<text x="1412.3" y="215.6" text-anchor="middle" class="cardinality">1</text>
<text x="1059.5" y="292.9" text-anchor="middle" class="cardinality">*</text>
<rect x="1218.0" y="252.0" width="40" height="14" rx="3" fill="white" stroke="#d0d7de" stroke-width="0.5"/>
<text x="1238.0" y="262.0" text-anchor="middle" class="rel-label">shelves</text>
<path d="M 1458.0 218.0 C 1458.0 264.0 1458.0 264.0 1458.0 310.0" class="rel-line"/>
<text x="1448.0" y="225.4" text-anchor="middle" class="cardinality">1</text>
<text x="1448.0" y="302.6" text-anchor="middle" class="cardinality">*</text>
<path d="M 1418.0 754.0 C 1418.0 789.0 1208.0 789.0 1208.0 824.0" class="rel-line"/>
<text x="1398.0" y="750.1" text-anchor="middle" class="cardinality">1</text>
<text x="1221.6" y="808.9" text-anchor="middle" class="cardinality">*</text>
<rect x="1293.0" y="777.0" width="40" height="14" rx="3" fill="white" stroke="#d0d7de" stroke-width="0.5"/>
<text x="1313.0" y="787.0" text-anchor="middle" class="rel-label">reviews</text>
<path d="M 1428.0 754.0 C 1428.0 789.0 1638.0 789.0 1638.0 824.0" class="rel-line"/>
<text x="1441.6" y="769.1" text-anchor="middle" class="cardinality">1</text>
<text x="1618.0" y="827.9" text-anchor="middle" class="cardinality">*</text>
<rect x="28.0" y="60" width="300.0" height="92.0" rx="6" fill="#ffffff" stroke="#d0d7de" stroke-width="1" filter="url(#shadow)"/>
<rect x="28.0" y="60" width="300.0" height="32" rx="6" fill="#24292f"/>
<rect x="28.0" y="86" width="300.0" height="6" fill="#24292f"/>
<text x="42.0" y="81.0" class="entity-name">Category</text>
<text x="68.0" y="115.0" class="field-name">name</text>
<text x="314.0" y="115.0" text-anchor="end" class="field-type">String(100)</text>
<line x1="42.0" y1="122" x2="314.0" y2="122" stroke="#f0f0f0" stroke-width="0.5"/>
<text x="68.0" y="137.0" class="field-name">description?</text>
<text x="314.0" y="137.0" text-anchor="end" class="field-type">String(500)</text>
<rect x="448.0" y="60" width="300.0" height="114.0" rx="6" fill="#ffffff" stroke="#d0d7de" stroke-width="1" filter="url(#shadow)"/>
<rect x="448.0" y="60" width="300.0" height="32" rx="6" fill="#24292f"/>
<rect x="448.0" y="86" width="300.0" height="6" fill="#24292f"/>
<text x="462.0" y="81.0" class="entity-name">User</text>
<text x="488.0" y="115.0" class="field-name">email</text>
<text x="734.0" y="115.0" text-anchor="end" class="field-type">String(255)</text>
<line x1="462.0" y1="122" x2="734.0" y2="122" stroke="#f0f0f0" stroke-width="0.5"/>
<text x="488.0" y="137.0" class="field-name">passwordHash</text>
<text x="734.0" y="137.0" text-anchor="end" class="field-type">Password</text>
<line x1="462.0" y1="144" x2="734.0" y2="144" stroke="#f0f0f0" stroke-width="0.5"/>
<text x="488.0" y="159.0" class="field-name">role</text>
<text x="734.0" y="159.0" text-anchor="end" class="field-type">UserRole</text>
<rect x="868.0" y="60" width="300.0" height="92.0" rx="6" fill="#ffffff" stroke="#d0d7de" stroke-width="1" filter="url(#shadow)"/>
<rect x="868.0" y="60" width="300.0" height="32" rx="6" fill="#24292f"/>
<rect x="868.0" y="86" width="300.0" height="6" fill="#24292f"/>
<text x="882.0" y="81.0" class="entity-name">Tag</text>
<text x="908.0" y="115.0" class="field-name">name</text>
<text x="1154.0" y="115.0" text-anchor="end" class="field-type">String(50)</text>
<line x1="882.0" y1="122" x2="1154.0" y2="122" stroke="#f0f0f0" stroke-width="0.5"/>
<text x="908.0" y="137.0" class="field-name">description?</text>
<text x="1154.0" y="137.0" text-anchor="end" class="field-type">String(200)</text>
<rect x="658.0" y="824.0" width="300.0" height="70.0" rx="6" fill="#ffffff" stroke="#d0d7de" stroke-width="1" filter="url(#shadow)"/>
<rect x="658.0" y="824.0" width="300.0" height="32" rx="6" fill="#24292f"/>
<rect x="658.0" y="850.0" width="300.0" height="6" fill="#24292f"/>
<text x="672.0" y="845.0" class="entity-name">BookTag</text>
<rect x="1288.0" y="60" width="300.0" height="158.0" rx="6" fill="#ffffff" stroke="#d0d7de" stroke-width="1" filter="url(#shadow)"/>
<rect x="1288.0" y="60" width="300.0" height="32" rx="6" fill="#24292f"/>
<rect x="1288.0" y="86" width="300.0" height="6" fill="#24292f"/>
<text x="1302.0" y="81.0" class="entity-name">Branch</text>
<text x="1328.0" y="115.0" class="field-name">name</text>
<text x="1574.0" y="115.0" text-anchor="end" class="field-type">String(200)</text>
<line x1="1302.0" y1="122" x2="1574.0" y2="122" stroke="#f0f0f0" stroke-width="0.5"/>
<text x="1328.0" y="137.0" class="field-name">latitude</text>
<text x="1574.0" y="137.0" text-anchor="end" class="field-type">Latitude</text>
<line x1="1302.0" y1="144" x2="1574.0" y2="144" stroke="#f0f0f0" stroke-width="0.5"/>
<text x="1328.0" y="159.0" class="field-name">longitude</text>
<text x="1574.0" y="159.0" text-anchor="end" class="field-type">Longitude</text>
<line x1="1302.0" y1="166" x2="1574.0" y2="166" stroke="#f0f0f0" stroke-width="0.5"/>
<text x="1328.0" y="181.0" class="field-name">country</text>
<text x="1574.0" y="181.0" text-anchor="end" class="field-type">CountryCode</text>
<line x1="1302.0" y1="188" x2="1574.0" y2="188" stroke="#f0f0f0" stroke-width="0.5"/>
<text x="1328.0" y="203.0" class="field-name">postalCode?</text>
<text x="1574.0" y="203.0" text-anchor="end" class="field-type">PostalCode</text>
<rect x="868.0" y="310.0" width="300.0" height="114.0" rx="6" fill="#ffffff" stroke="#d0d7de" stroke-width="1" filter="url(#shadow)"/>
<rect x="868.0" y="310.0" width="300.0" height="32" rx="6" fill="#24292f"/>
<rect x="868.0" y="336.0" width="300.0" height="6" fill="#24292f"/>
<text x="882.0" y="331.0" class="entity-name">ShelfLocation</text>
<text x="908.0" y="365.0" class="field-name">aisle</text>
<text x="1154.0" y="365.0" text-anchor="end" class="field-type">String(50)</text>
<line x1="882.0" y1="372.0" x2="1154.0" y2="372.0" stroke="#f0f0f0" stroke-width="0.5"/>
<text x="908.0" y="387.0" class="field-name">shelf</text>
<text x="1154.0" y="387.0" text-anchor="end" class="field-type">String(10)</text>
<line x1="882.0" y1="394.0" x2="1154.0" y2="394.0" stroke="#f0f0f0" stroke-width="0.5"/>
<text x="908.0" y="409.0" class="field-name">capacity</text>
<text x="1154.0" y="409.0" text-anchor="end" class="field-type">Integer</text>
<rect x="1288.0" y="310.0" width="300.0" height="444.0" rx="6" fill="#ffffff" stroke="#d0d7de" stroke-width="1" filter="url(#shadow)"/>
<rect x="1288.0" y="310.0" width="300.0" height="32" rx="6" fill="#24292f"/>
<rect x="1288.0" y="336.0" width="300.0" height="6" fill="#24292f"/>
<text x="1302.0" y="331.0" class="entity-name">Book</text>
<text x="1328.0" y="365.0" class="field-name">createdBy</text>
<text x="1574.0" y="365.0" text-anchor="end" class="field-type">UUID</text>
<line x1="1302.0" y1="372.0" x2="1574.0" y2="372.0" stroke="#f0f0f0" stroke-width="0.5"/>
<text x="1328.0" y="387.0" class="field-name">updatedBy?</text>
<text x="1574.0" y="387.0" text-anchor="end" class="field-type">UUID</text>
<line x1="1302.0" y1="394.0" x2="1574.0" y2="394.0" stroke="#f0f0f0" stroke-width="0.5"/>
<text x="1328.0" y="409.0" class="field-name">deletedAt?</text>
<text x="1574.0" y="409.0" text-anchor="end" class="field-type">DateTime</text>
<line x1="1302.0" y1="416.0" x2="1574.0" y2="416.0" stroke="#f0f0f0" stroke-width="0.5"/>
<text x="1328.0" y="431.0" class="field-name">deletedBy?</text>
<text x="1574.0" y="431.0" text-anchor="end" class="field-type">UUID</text>
<line x1="1302.0" y1="438.0" x2="1574.0" y2="438.0" stroke="#f0f0f0" stroke-width="0.5"/>
<text x="1328.0" y="453.0" class="field-name">title</text>
<text x="1574.0" y="453.0" text-anchor="end" class="field-type">String(200)</text>
<line x1="1302.0" y1="460.0" x2="1574.0" y2="460.0" stroke="#f0f0f0" stroke-width="0.5"/>
<text x="1328.0" y="475.0" class="field-name">isbn</text>
<text x="1574.0" y="475.0" text-anchor="end" class="field-type">String(10, 13)</text>
<line x1="1302.0" y1="482.0" x2="1574.0" y2="482.0" stroke="#f0f0f0" stroke-width="0.5"/>
<text x="1328.0" y="497.0" class="field-name">author</text>
<text x="1574.0" y="497.0" text-anchor="end" class="field-type">String(100)</text>
<line x1="1302.0" y1="504.0" x2="1574.0" y2="504.0" stroke="#f0f0f0" stroke-width="0.5"/>
<text x="1328.0" y="519.0" class="field-name">publicationYear</text>
<text x="1574.0" y="519.0" text-anchor="end" class="field-type">Integer</text>
<line x1="1302.0" y1="526.0" x2="1574.0" y2="526.0" stroke="#f0f0f0" stroke-width="0.5"/>
<text x="1328.0" y="541.0" class="field-name">status</text>
<text x="1574.0" y="541.0" text-anchor="end" class="field-type">BookStatus</text>
<line x1="1302.0" y1="548.0" x2="1574.0" y2="548.0" stroke="#f0f0f0" stroke-width="0.5"/>
<text x="1328.0" y="563.0" class="field-name">format</text>
<text x="1574.0" y="563.0" text-anchor="end" class="field-type">BookFormat</text>
<line x1="1302.0" y1="570.0" x2="1574.0" y2="570.0" stroke="#f0f0f0" stroke-width="0.5"/>
<text x="1328.0" y="585.0" class="field-name">catalogNumber?</text>
<text x="1574.0" y="585.0" text-anchor="end" class="field-type">String(50)</text>
<line x1="1302.0" y1="592.0" x2="1574.0" y2="592.0" stroke="#f0f0f0" stroke-width="0.5"/>
<text x="1328.0" y="607.0" class="field-name">keywords</text>
<text x="1574.0" y="607.0" text-anchor="end" class="field-type">Array&lt;String&gt;</text>
<line x1="1302.0" y1="614.0" x2="1574.0" y2="614.0" stroke="#f0f0f0" stroke-width="0.5"/>
<text x="1328.0" y="629.0" class="field-name">rating</text>
<text x="1574.0" y="629.0" text-anchor="end" class="field-type">Decimal(3, 2)</text>
<line x1="1302.0" y1="636.0" x2="1574.0" y2="636.0" stroke="#f0f0f0" stroke-width="0.5"/>
<text x="1328.0" y="651.0" class="field-name">price</text>
<text x="1574.0" y="651.0" text-anchor="end" class="field-type">Decimal(10, 2)</text>
<line x1="1302.0" y1="658.0" x2="1574.0" y2="658.0" stroke="#f0f0f0" stroke-width="0.5"/>
<text x="1328.0" y="673.0" class="field-name">metadata</text>
<text x="1574.0" y="673.0" text-anchor="end" class="field-type">Map&lt;String, String&gt;</text>
<line x1="1302.0" y1="680.0" x2="1574.0" y2="680.0" stroke="#f0f0f0" stroke-width="0.5"/>
<text x="1328.0" y="695.0" class="field-name">tags</text>
<text x="1574.0" y="695.0" text-anchor="end" class="field-type">Set&lt;String&gt;</text>
<line x1="1302.0" y1="702.0" x2="1574.0" y2="702.0" stroke="#f0f0f0" stroke-width="0.5"/>
<text x="1328.0" y="717.0" class="field-name">condition</text>
<text x="1574.0" y="717.0" text-anchor="end" class="field-type">BookCondition</text>
<line x1="1302.0" y1="724.0" x2="1574.0" y2="724.0" stroke="#f0f0f0" stroke-width="0.5"/>
<text x="1328.0" y="739.0" class="field-name">renewalCount</text>
<text x="1574.0" y="739.0" text-anchor="end" class="field-type">Integer</text>
<rect x="1078.0" y="824.0" width="300.0" height="92.0" rx="6" fill="#ffffff" stroke="#d0d7de" stroke-width="1" filter="url(#shadow)"/>
<rect x="1078.0" y="824.0" width="300.0" height="32" rx="6" fill="#24292f"/>
<rect x="1078.0" y="850.0" width="300.0" height="6" fill="#24292f"/>
<text x="1092.0" y="845.0" class="entity-name">Review</text>
<text x="1118.0" y="879.0" class="field-name">rating</text>
<text x="1364.0" y="879.0" text-anchor="end" class="field-type">Integer</text>
<line x1="1092.0" y1="886.0" x2="1364.0" y2="886.0" stroke="#f0f0f0" stroke-width="0.5"/>
<text x="1118.0" y="901.0" class="field-name">comment?</text>
<text x="1364.0" y="901.0" text-anchor="end" class="field-type">Text</text>
<rect x="1498.0" y="824.0" width="300.0" height="180.0" rx="6" fill="#ffffff" stroke="#d0d7de" stroke-width="1" filter="url(#shadow)"/>
<rect x="1498.0" y="824.0" width="300.0" height="32" rx="6" fill="#24292f"/>
<rect x="1498.0" y="850.0" width="300.0" height="6" fill="#24292f"/>
<text x="1512.0" y="845.0" class="entity-name">Checkout</text>
<text x="1538.0" y="879.0" class="field-name">createdBy</text>
<text x="1784.0" y="879.0" text-anchor="end" class="field-type">UUID</text>
<line x1="1512.0" y1="886.0" x2="1784.0" y2="886.0" stroke="#f0f0f0" stroke-width="0.5"/>
<text x="1538.0" y="901.0" class="field-name">updatedBy?</text>
<text x="1784.0" y="901.0" text-anchor="end" class="field-type">UUID</text>
<line x1="1512.0" y1="908.0" x2="1784.0" y2="908.0" stroke="#f0f0f0" stroke-width="0.5"/>
<text x="1538.0" y="923.0" class="field-name">checkoutDate</text>
<text x="1784.0" y="923.0" text-anchor="end" class="field-type">DateTime</text>
<line x1="1512.0" y1="930.0" x2="1784.0" y2="930.0" stroke="#f0f0f0" stroke-width="0.5"/>
<text x="1538.0" y="945.0" class="field-name">dueDate</text>
<text x="1784.0" y="945.0" text-anchor="end" class="field-type">DateTime</text>
<line x1="1512.0" y1="952.0" x2="1784.0" y2="952.0" stroke="#f0f0f0" stroke-width="0.5"/>
<text x="1538.0" y="967.0" class="field-name">returnDate?</text>
<text x="1784.0" y="967.0" text-anchor="end" class="field-type">DateTime</text>
<line x1="1512.0" y1="974.0" x2="1784.0" y2="974.0" stroke="#f0f0f0" stroke-width="0.5"/>
<text x="1538.0" y="989.0" class="field-name">renewals</text>
<text x="1784.0" y="989.0" text-anchor="end" class="field-type">Integer</text>
<rect x="1708.0" y="60" width="300.0" height="158.0" rx="6" fill="#ffffff" stroke="#d0d7de" stroke-width="1" filter="url(#shadow)"/>
<rect x="1708.0" y="60" width="300.0" height="32" rx="6" fill="#24292f"/>
<rect x="1708.0" y="86" width="300.0" height="6" fill="#24292f"/>
<text x="1722.0" y="81.0" class="entity-name">BookAuditLog</text>
<text x="1748.0" y="115.0" class="field-name">bookId</text>
<text x="1994.0" y="115.0" text-anchor="end" class="field-type">UUID</text>
<line x1="1722.0" y1="122" x2="1994.0" y2="122" stroke="#f0f0f0" stroke-width="0.5"/>
<text x="1748.0" y="137.0" class="field-name">action</text>
<text x="1994.0" y="137.0" text-anchor="end" class="field-type">AuditAction</text>
<line x1="1722.0" y1="144" x2="1994.0" y2="144" stroke="#f0f0f0" stroke-width="0.5"/>
<text x="1748.0" y="159.0" class="field-name">performedBy?</text>
<text x="1994.0" y="159.0" text-anchor="end" class="field-type">String(100)</text>
<line x1="1722.0" y1="166" x2="1994.0" y2="166" stroke="#f0f0f0" stroke-width="0.5"/>
<text x="1748.0" y="181.0" class="field-name">changes?</text>
<text x="1994.0" y="181.0" text-anchor="end" class="field-type">JSON</text>
<line x1="1722.0" y1="188" x2="1994.0" y2="188" stroke="#f0f0f0" stroke-width="0.5"/>
<text x="1748.0" y="203.0" class="field-name">occurredAt</text>
<text x="1994.0" y="203.0" text-anchor="end" class="field-type">DateTime</text>
<rect x="2128.0" y="60" width="300.0" height="180.0" rx="6" fill="#ffffff" stroke="#d0d7de" stroke-width="1" filter="url(#shadow)"/>
<rect x="2128.0" y="60" width="300.0" height="32" rx="6" fill="#24292f"/>
<rect x="2128.0" y="86" width="300.0" height="6" fill="#24292f"/>
<text x="2142.0" y="81.0" class="entity-name">DailyBookStats</text>
<text x="2168.0" y="115.0" class="field-name">reportDate</text>
<text x="2414.0" y="115.0" text-anchor="end" class="field-type">DateTime</text>
<line x1="2142.0" y1="122" x2="2414.0" y2="122" stroke="#f0f0f0" stroke-width="0.5"/>
<text x="2168.0" y="137.0" class="field-name">totalCheckouts</text>
<text x="2414.0" y="137.0" text-anchor="end" class="field-type">Integer</text>
<line x1="2142.0" y1="144" x2="2414.0" y2="144" stroke="#f0f0f0" stroke-width="0.5"/>
<text x="2168.0" y="159.0" class="field-name">totalReturns</text>
<text x="2414.0" y="159.0" text-anchor="end" class="field-type">Integer</text>
<line x1="2142.0" y1="166" x2="2414.0" y2="166" stroke="#f0f0f0" stroke-width="0.5"/>
<text x="2168.0" y="181.0" class="field-name">newBooks</text>
<text x="2414.0" y="181.0" text-anchor="end" class="field-type">Integer</text>
<line x1="2142.0" y1="188" x2="2414.0" y2="188" stroke="#f0f0f0" stroke-width="0.5"/>
<text x="2168.0" y="203.0" class="field-name">activeMembers</text>
<text x="2414.0" y="203.0" text-anchor="end" class="field-type">Integer</text>
<line x1="2142.0" y1="210" x2="2414.0" y2="210" stroke="#f0f0f0" stroke-width="0.5"/>
<text x="2168.0" y="225.0" class="field-name">generatedAt</text>
<text x="2414.0" y="225.0" text-anchor="end" class="field-type">DateTime</text>
</svg>