<svg xmlns="http://www.w3.org/2000/svg" viewBox="0 0 946 272">
<style>
  .svc-label { font: bold 11px 'Segoe UI', system-ui, -apple-system, sans-serif; fill: #ffffff; }
  .infra-label { font: bold 11px 'Segoe UI', system-ui, -apple-system, sans-serif; fill: #1f2328; }
  .section-label { font: bold 10px 'Segoe UI', system-ui, -apple-system, sans-serif; fill: #656d76; text-transform: uppercase; letter-spacing: 0.5px; }
</style>
<defs><marker id="http-arrow" viewBox="0 0 10 10" refX="9" refY="5" markerWidth="6" markerHeight="6" orient="auto-start-reverse"><path d="M 0 0 L 10 5 L 0 10 z" fill="#57606a"/></marker></defs>
<rect width="946" height="272" fill="white"/>
<text x="28" y="44" style="font: bold 16px 'Segoe UI', system-ui, -apple-system, sans-serif; fill: #1f2328;">Service Map</text>
<text x="28" y="60" style="font: 11px 'Segoe UI', system-ui, -apple-system, sans-serif; fill: #656d76;">Services and shared infrastructure</text>
<text x="28" y="66" class="section-label">Services</text>
<text x="28" y="198" class="section-label">Infrastructure</text>
<path d="M 263.0 112.0 C 195.5 112.0 195.5 208.0 128.0 208.0" stroke="#b0b8c0" fill="none" stroke-width="1.0"/>
<path d="M 473.0 112.0 C 300.5 112.0 300.5 208.0 128.0 208.0" stroke="#b0b8c0" fill="none" stroke-width="1.0"/>
<path d="M 683.0 112.0 C 405.5 112.0 405.5 208.0 128.0 208.0" stroke="#b0b8c0" fill="none" stroke-width="1.0"/>
<path d="M 263.0 112.0 C 263.0 160.0 358.0 160.0 358.0 208.0" stroke="#b0b8c0" fill="none" stroke-width="1.0"/>
<path d="M 473.0 112.0 C 415.5 112.0 415.5 208.0 358.0 208.0" stroke="#b0b8c0" fill="none" stroke-width="1.0"/>
<path d="M 683.0 112.0 C 520.5 112.0 520.5 208.0 358.0 208.0" stroke="#b0b8c0" fill="none" stroke-width="1.0"/>
<path d="M 263.0 112.0 C 425.5 112.0 425.5 208.0 588.0 208.0" stroke="#b0b8c0" fill="none" stroke-width="1.0"/>
<path d="M 473.0 112.0 C 530.5 112.0 530.5 208.0 588.0 208.0" stroke="#b0b8c0" fill="none" stroke-width="1.0"/>
<path d="M 683.0 112.0 C 683.0 160.0 588.0 160.0 588.0 208.0" stroke="#b0b8c0" fill="none" stroke-width="1.0"/>
<path d="M 683.0 112.0 C 750.5 112.0 750.5 208.0 818.0 208.0" stroke="#b0b8c0" fill="none" stroke-width="1.0"/>
<path d="M 383.0 94.0 C 368.0 94.0 368.0 94.0 353.0 94.0" stroke="#57606a" fill="none" stroke-width="1.0" marker-end="url(#http-arrow)"/>
<path d="M 593.0 94.0 C 473.0 94.0 473.0 94.0 353.0 94.0" stroke="#57606a" fill="none" stroke-width="1.0" marker-end="url(#http-arrow)"/>
<path d="M 593.0 94.0 C 578.0 94.0 578.0 94.0 563.0 94.0" stroke="#57606a" fill="none" stroke-width="1.0" marker-end="url(#http-arrow)"/>
<rect x="173.0" y="76" width="180" height="36" rx="8" fill="#24292f" stroke="#d0d7de" stroke-width="1"/>
<text x="263.0" y="98.0" text-anchor="middle" class="svc-label">PatientService</text>
<rect x="383.0" y="76" width="180" height="36" rx="8" fill="#24292f" stroke="#d0d7de" stroke-width="1"/>
<text x="473.0" y="98.0" text-anchor="middle" class="svc-label">AppointmentService</text>
<rect x="593.0" y="76" width="180" height="36" rx="8" fill="#24292f" stroke="#d0d7de" stroke-width="1"/>
<text x="683.0" y="98.0" text-anchor="middle" class="svc-label">MedicalRecordService</text>
<rect x="28.0" y="208" width="200" height="36" rx="6" fill="#ddf4ff" stroke="#54aeff" stroke-width="1"/>
<text x="128.0" y="230.0" text-anchor="middle" class="infra-label">postgres (localhost:5432)</text>
<rect x="258.0" y="208" width="200" height="36" rx="6" fill="#dafbe1" stroke="#4ac26b" stroke-width="1"/>
<text x="358.0" y="230.0" text-anchor="middle" class="infra-label">redis (localhost:6379)</text>
<rect x="488.0" y="208" width="200" height="36" rx="6" fill="#fff8c5" stroke="#d4a72c" stroke-width="1"/>
<text x="588.0" y="230.0" text-anchor="middle" class="infra-label">kafka (localhost:9092)</text>
<rect x="718.0" y="208" width="200" height="36" rx="6" fill="#e8f5e9" stroke="#66bb6a" stroke-width="1"/>
<text x="818.0" y="230.0" text-anchor="middle" class="infra-label">Storage: store</text>
</svg>